<svg id="Layer_1" data-name="Layer 1" xmlns="http://www.w3.org/2000/svg" viewBox="0 0 363.25 363.25"><defs><style>.cls-1{fill:#fff;}.cls-2{fill:#5a5a5a;}.cls-3{fill:#ffd86e;}.cls-4{fill:#ffb509;}.cls-5{fill:#838383;}.cls-6{fill:#acacac;}.cls-7{fill:#9c9c9c;}.cls-8{fill:#64dcfc;}.cls-9{fill:#00d1fc;}.cls-10{fill:#0396fd;}.cls-11{fill:#0077f0;}.cls-12{fill:#e7e7e7;}.cls-13{fill:#ff5770;}.cls-14{fill:#80e0dc;}.cls-15{fill:#ff435f;}.cls-16{fill:#00a8b0;}</style></defs><rect class="cls-1" x="115.13" y="127.05" width="133" height="109.15"/><path class="cls-2" d="M168.23,211.84h26.68v11H168.23Z"/><path class="cls-3" d="M224.37,213.39h-85.6a4.89,4.89,0,0,1-4.89-4.9h0V138.83a4.89,4.89,0,0,1,4.89-4.9h85.6a4.89,4.89,0,0,1,4.9,4.89h0v69.66a4.9,4.9,0,0,1-4.9,4.9Z"/><path class="cls-4" d="M229.27,138.83v69.66a4.9,4.9,0,0,1-4.9,4.9h-6a4.89,4.89,0,0,0,4.89-4.9V138.83a4.89,4.89,0,0,0-4.89-4.9h6a4.9,4.9,0,0,1,4.9,4.89Z"/><path class="cls-5" d="M229.27,201.59H133.88v6.9a4.9,4.9,0,0,0,4.89,4.9h85.6a4.9,4.9,0,0,0,4.9-4.9h0Z"/><path class="cls-2" d="M229.27,201.59v6.9a4.91,4.91,0,0,1-4.9,4.9h-6a4.9,4.9,0,0,0,4.89-4.9v-6.9Z"/><path class="cls-6" d="M229.37,150.63H134v-11.8a4.9,4.9,0,0,1,4.9-4.9h85.6a4.89,4.89,0,0,1,4.89,4.9h0Z"/><path class="cls-7" d="M229.37,138.83v11.81h-6.09V138.83a4.89,4.89,0,0,0-4.89-4.9h6.09a4.89,4.89,0,0,1,4.89,4.89Z"/><path class="cls-5" d="M203.56,229.32h-44a1,1,0,0,1-1-1h0v-3.11a3.82,3.82,0,0,1,3.82-3.82H200.7a3.82,3.82,0,0,1,3.82,3.82h0v3.11a1,1,0,0,1-1,1Z"/><path class="cls-2" d="M204.52,225.25v3.11a1,1,0,0,1-1,1h-3.39v-4.07a3.82,3.82,0,0,0-3.82-3.82h4.35a3.82,3.82,0,0,1,3.82,3.82Z"/><path class="cls-5" d="M144.78,168.71a1.34,1.34,0,0,1-1-.41l-4.51-4.51a1.39,1.39,0,0,1,0-2h0l4.51-4.51a1.4,1.4,0,0,1,2,2l-3.52,3.52,3.52,3.53a1.39,1.39,0,0,1,0,2,1.37,1.37,0,0,1-1,.41Z"/><path class="cls-5" d="M155.57,168.71a1.4,1.4,0,0,1-1-2.38l3.53-3.53-3.53-3.52a1.4,1.4,0,0,1,0-2,1.39,1.39,0,0,1,1.93,0l4.52,4.51a1.41,1.41,0,0,1,0,2h0l-4.52,4.52A1.34,1.34,0,0,1,155.57,168.71Z"/><path class="cls-5" d="M148.56,168.72a1.41,1.41,0,0,1-1.4-1.41,1.32,1.32,0,0,1,.1-.51l3.54-9a1.4,1.4,0,1,1,2.64.93l0,.09-3.55,9A1.43,1.43,0,0,1,148.56,168.72Z"/><path class="cls-5" d="M150.78,177.16h-9.7a1.4,1.4,0,1,1,0-2.8h9.7a1.4,1.4,0,1,1,0,2.8Z"/><path class="cls-5" d="M173.12,177.16H156.07a1.4,1.4,0,1,1,0-2.8h17.05a1.4,1.4,0,1,1,0,2.8Z"/><path class="cls-5" d="M145.21,183.23h-4.13a1.4,1.4,0,1,1,0-2.79h4.13a1.4,1.4,0,1,1,0,2.79Z"/><path class="cls-5" d="M170.37,183.23h-2.52a1.4,1.4,0,0,1,0-2.79h2.52a1.4,1.4,0,1,1,0,2.79Z"/><path class="cls-5" d="M162.63,183.23H150.27a1.4,1.4,0,1,1,0-2.79h12.36a1.4,1.4,0,1,1,0,2.79Z"/><path class="cls-5" d="M179.65,183.23h-4.71a1.4,1.4,0,1,1,0-2.79h4.71a1.4,1.4,0,1,1,0,2.79Z"/><path class="cls-5" d="M170.63,163.92h-5a1.4,1.4,0,0,1,0-2.8h5a1.4,1.4,0,0,1,0,2.8Z"/><path class="cls-5" d="M206.53,163.92H176.19a1.4,1.4,0,0,1,0-2.8h30.34a1.4,1.4,0,0,1,0,2.8Z"/><path class="cls-5" d="M201.92,170.25H189.63a1.4,1.4,0,0,1,0-2.8h12.29a1.4,1.4,0,0,1,0,2.8Z"/><path class="cls-5" d="M185,170.25H180.8a1.4,1.4,0,0,1,0-2.8H185a1.4,1.4,0,0,1,0,2.8Z"/><path class="cls-5" d="M176,170.25H165.66a1.4,1.4,0,0,1,0-2.8H176a1.4,1.4,0,0,1,0,2.8Z"/><path class="cls-5" d="M162.64,189.26h-9.7a1.4,1.4,0,0,1,0-2.8h9.7a1.4,1.4,0,0,1,0,2.8Z"/><path class="cls-5" d="M148.54,189.26h-7.46a1.4,1.4,0,0,1,0-2.8h7.45a1.4,1.4,0,0,1,0,2.8Z"/><path class="cls-5" d="M180.23,189.26H167.56a1.4,1.4,0,0,1,0-2.8h12.67a1.4,1.4,0,1,1,0,2.8Z"/><path class="cls-8" d="M189.21,183.06h31.18v10.56H189.21Z"/><path class="cls-8" d="M189.21,199.37h31.18v9.8H189.21Z"/><path class="cls-9" d="M216.7,183.06h3.69v10.56H216.7Z"/><path class="cls-9" d="M216.7,199.37h3.69v9.8H216.7Z"/><path class="cls-10" d="M223,185.35H186.63a1.39,1.39,0,0,1-1.39-1.39h0v-7a1.39,1.39,0,0,1,1.39-1.39H223a1.39,1.39,0,0,1,1.39,1.39h0v7a1.39,1.39,0,0,1-1.39,1.39Z"/><path class="cls-10" d="M223,201H186.63a1.39,1.39,0,0,1-1.39-1.39h0v-7a1.39,1.39,0,0,1,1.39-1.39H223a1.39,1.39,0,0,1,1.39,1.39h0v7A1.39,1.39,0,0,1,223,201Z"/><path class="cls-10" d="M223,216.73H186.63a1.39,1.39,0,0,1-1.39-1.39h0v-7a1.39,1.39,0,0,1,1.39-1.39H223a1.39,1.39,0,0,1,1.39,1.39h0v7a1.39,1.39,0,0,1-1.39,1.39Z"/><path class="cls-11" d="M224.36,177v7a1.39,1.39,0,0,1-1.39,1.39h-3.23a1.39,1.39,0,0,0,1.39-1.39h0v-7a1.39,1.39,0,0,0-1.39-1.39H223a1.39,1.39,0,0,1,1.39,1.39Z"/><path class="cls-11" d="M224.36,192.65v7A1.39,1.39,0,0,1,223,201h-3.23a1.39,1.39,0,0,0,1.39-1.39h0v-7a1.39,1.39,0,0,0-1.39-1.39H223a1.39,1.39,0,0,1,1.39,1.39Z"/><path class="cls-11" d="M224.36,208.34v7a1.39,1.39,0,0,1-1.39,1.39h-3.23a1.39,1.39,0,0,0,1.39-1.39h0v-7a1.39,1.39,0,0,0-1.39-1.39H223a1.39,1.39,0,0,1,1.39,1.39Z"/><path class="cls-12" d="M197.36,181.86h-6.92a1.4,1.4,0,0,1,0-2.8h6.92a1.4,1.4,0,0,1,0,2.8Z"/><path class="cls-12" d="M219.16,181.86h-9.78a1.4,1.4,0,0,1,0-2.8h9.78a1.4,1.4,0,0,1,0,2.8Z"/><path class="cls-12" d="M204.49,181.86h-2.24a1.4,1.4,0,0,1,0-2.8h2.24a1.4,1.4,0,0,1,0,2.8Z"/><path class="cls-12" d="M197.36,197.55h-6.92a1.4,1.4,0,0,1,0-2.8h6.92a1.4,1.4,0,0,1,0,2.8Z"/><path class="cls-12" d="M219.16,197.55h-9.78a1.4,1.4,0,0,1,0-2.8h9.78a1.4,1.4,0,0,1,0,2.8Z"/><path class="cls-12" d="M204.49,197.55h-2.24a1.4,1.4,0,0,1,0-2.8h2.24a1.4,1.4,0,0,1,0,2.8Z"/><path class="cls-12" d="M197.36,213.24h-6.92a1.4,1.4,0,1,1,0-2.79h6.92a1.4,1.4,0,1,1,0,2.79Z"/><path class="cls-12" d="M219.16,213.24h-9.78a1.4,1.4,0,1,1,0-2.79h9.78a1.4,1.4,0,1,1,0,2.79Z"/><path class="cls-12" d="M204.49,213.24h-2.24a1.4,1.4,0,1,1,0-2.79h2.24a1.4,1.4,0,1,1,0,2.79Z"/><path class="cls-13" d="M145.84,142.24a2.79,2.79,0,1,1-2.79-2.78h0a2.78,2.78,0,0,1,2.79,2.78Z"/><path class="cls-3" d="M156.6,142.24a2.79,2.79,0,1,1-2.79-2.78h0A2.78,2.78,0,0,1,156.6,142.24Z"/><path class="cls-14" d="M167.35,142.24a2.79,2.79,0,1,1-2.78-2.78,2.78,2.78,0,0,1,2.78,2.78Z"/><path class="cls-15" d="M145.84,142.24a2.79,2.79,0,0,1-4.71,2,2.77,2.77,0,0,0,2.72-2.84,2.73,2.73,0,0,0-.86-1.95h.07a2.78,2.78,0,0,1,2.78,2.78Z"/><path class="cls-4" d="M156.59,142.24a2.77,2.77,0,0,1-2.78,2.78,2.73,2.73,0,0,1-1.92-.77,2.77,2.77,0,0,0,1.85-4.79.08.08,0,0,1,.07,0,2.78,2.78,0,0,1,2.78,2.78Z"/><path class="cls-16" d="M167.35,142.24a2.77,2.77,0,0,1-2.78,2.78,2.73,2.73,0,0,1-1.92-.77,2.77,2.77,0,0,0,1.85-4.79h.07a2.77,2.77,0,0,1,2.78,2.78Z"/></svg>