<svg id="Layer_1" data-name="Layer 1" xmlns="http://www.w3.org/2000/svg" viewBox="0 0 363.25 363.25"><defs><style>.cls-1{fill:#fff;}.cls-2{fill:#ffe854;}.cls-3{fill:#3e4a68;}.cls-4{fill:#303a59;}.cls-5{fill:#ebf0f3;}.cls-6{fill:#ceddf7;}.cls-7{fill:#ff3345;}.cls-8{fill:#e32828;}.cls-9{fill:#aac5ee;}.cls-10{fill:#232d47;}.cls-11{fill:#0c99e6;}.cls-12{fill:#9c68e1;}</style></defs><rect class="cls-1" x="115.13" y="127.05" width="133" height="109.15"/><path class="cls-2" d="M149,216.48h65.27a47.75,47.75,0,1,0-67.49-2.22Q147.83,215.4,149,216.48Z"/><path class="cls-3" d="M152.71,219.63c-1.29-1-2.54-2-3.73-3.15V141.34a7.46,7.46,0,0,1,7.46-7.46h50.37a7.46,7.46,0,0,1,7.46,7.46v75.14c-1.19,1.11-2.44,2.16-3.73,3.15Z"/><path class="cls-4" d="M152.71,219.63h57.83c1.29-1,2.54-2,3.73-3.15V191a1.87,1.87,0,0,1-3.73,0H152.71a1.87,1.87,0,1,1-3.73,0v25.53C150.17,217.59,151.42,218.64,152.71,219.63Z"/><path class="cls-5" d="M210.54,154.58v65a47.81,47.81,0,0,1-50.37,4.67c-1.27-.65-2.52-1.34-3.73-2.1s-2.53-1.65-3.73-2.57v-65a2.05,2.05,0,0,1,2-2.05h53.72a2.05,2.05,0,0,1,2.06,2.05Z"/><path class="cls-6" d="M159.76,154.58a2.05,2.05,0,0,1,2.05-2.05h-7a2.05,2.05,0,0,0-2.06,2.05h0v65c1.2.92,2.45,1.77,3.73,2.57,1.08.67,2.19,1.3,3.32,1.88Z"/><path class="cls-7" d="M200.72,160.18c-3.62-1.61-6.56,1.67-6.56,1.67s-2.93-3.28-6.55-1.67-3.63,7-.41,10.52,6,5.12,7,5.12,3.74-1.55,7-5.12S204.34,161.79,200.72,160.18Z"/><path class="cls-8" d="M192.8,170.7c-3-3.32-3.2-8.19-.28-10.14a5.25,5.25,0,0,0-4.91-.38c-3.63,1.61-3.63,7-.41,10.52s6,5.12,7,5.12a6.22,6.22,0,0,0,2.8-1.33A25.8,25.8,0,0,1,192.8,170.7Z"/><path class="cls-7" d="M166.26,175.71h0a1.4,1.4,0,0,1-1.38-1.42h0c0-.74,0-1.57,0-2.44h-5.12a1.39,1.39,0,0,1-1.4-1.4,1.42,1.42,0,0,1,.17-.67c1-1.87,4.46-8.05,5.2-9a2.24,2.24,0,0,1,2.41-.88,2.33,2.33,0,0,1,1.55,2.1c0,.47,0,3.87,0,7H168a1.4,1.4,0,1,1,0,2.79h-.28c0,1.12,0,2,0,2.47A1.4,1.4,0,0,1,166.26,175.71Zm-4.13-6.66h2.77c0-1.83,0-3.6,0-4.87-.72,1.23-1.73,3-2.77,4.87Z"/><path class="cls-7" d="M176.4,175.71a5.18,5.18,0,1,1,5.17-5.18h0A5.19,5.19,0,0,1,176.4,175.71Zm0-7.56a2.38,2.38,0,1,0,2.38,2.38h0a2.4,2.4,0,0,0-2.38-2.38Z"/><path class="cls-7" d="M176.4,168.15a4.15,4.15,0,1,1,4.15-4.15h0A4.15,4.15,0,0,1,176.4,168.15Zm0-5.5a1.35,1.35,0,1,0,1.35,1.35h0a1.34,1.34,0,0,0-1.35-1.35Z"/><path class="cls-9" d="M190.89,193.31a2.32,2.32,0,0,1-2.23-1.64l-2.4-7.75-2.41,7.75a2.33,2.33,0,0,1-4.46,0l-2.4-7.75-2.41,7.75a2.34,2.34,0,0,1-4.46,0L169,188.06H152.71v-2.79h16.65a2.3,2.3,0,0,1,2.22,1.64l.78,2.5,2.41-7.75a2.33,2.33,0,0,1,2.91-1.54,2.29,2.29,0,0,1,1.54,1.54l2.41,7.75,2.41-7.75a2.33,2.33,0,0,1,4.45,0l2.41,7.75.88-2.84a2.33,2.33,0,0,1,2.23-1.64h16.54v2.8H194.34l-1.22,3.94A2.32,2.32,0,0,1,190.89,193.31Z"/><path class="cls-4" d="M189.09,148.8H174.16a1.87,1.87,0,0,1,0-3.73h14.93a1.87,1.87,0,0,1,0,3.73Z"/><path class="cls-10" d="M179.76,146.93a1.86,1.86,0,0,1,1.86-1.86h-7.46a1.87,1.87,0,0,0,0,3.73h7.46A1.87,1.87,0,0,1,179.76,146.93Z"/><circle class="cls-4" cx="166.9" cy="147.01" r="1.99"/><ellipse class="cls-4" cx="181.63" cy="139.85" rx="1.59" ry="1.99"/><path class="cls-9" d="M203.49,205.44H159.76a1.4,1.4,0,1,1,0-2.8h43.73a1.4,1.4,0,0,1,0,2.8Z"/><circle class="cls-11" cx="194.16" cy="204.04" r="4.66"/><path class="cls-9" d="M203.49,218.49H159.76a1.4,1.4,0,1,1,0-2.79h43.73a1.4,1.4,0,0,1,0,2.79Z"/><circle class="cls-12" cx="175.51" cy="217.09" r="4.66"/></svg>