<svg id="Layer_1" data-name="Layer 1" xmlns="http://www.w3.org/2000/svg" viewBox="0 0 363.25 363.25"><defs><style>.cls-1{fill:#fff;}.cls-2{fill:#ffc107;}.cls-3{fill:#f44336;}.cls-4{fill:#fafafa;}.cls-5{fill:#455a64;}</style></defs><rect class="cls-1" x="115.13" y="127.05" width="133" height="109.15"/><path class="cls-2" d="M151.33,158.52a4,4,0,0,0-4.05-4H123a4,4,0,1,0,0,8.08h24.25A4,4,0,0,0,151.33,158.52Z"/><path class="cls-2" d="M147.28,170.65H131.11a4,4,0,0,0,0,8.08h16.17a4,4,0,1,0,0-8.08Z"/><path class="cls-2" d="M147.28,186.82H139.2a4,4,0,0,0,0,8.09h8.08a4,4,0,1,0,0-8.09Z"/><path class="cls-3" d="M243.69,182.44l-12.13-20.22a4,4,0,0,0-3.47-2h-28.3a4,4,0,0,0-4,4v40.43a4,4,0,0,0,4,4.05h40.43a4,4,0,0,0,4.05-4.05V184.52A4,4,0,0,0,243.69,182.44Z"/><path class="cls-4" d="M211.92,169.66H225.8l9.71,16.17H211.92Z"/><path class="cls-2" d="M202.35,146.39h-56.6a4,4,0,0,0-4,3.9v54.59a4,4,0,0,0,4,3.9h60.64V150.29A4,4,0,0,0,202.35,146.39Z"/><circle class="cls-4" cx="224.51" cy="205.16" r="7.83"/><path class="cls-5" d="M224.05,216.86a12.13,12.13,0,1,1,12.13-12.13h0A12.14,12.14,0,0,1,224.05,216.86Zm0-16.17a4,4,0,1,0,4,4h0a4,4,0,0,0-4-4Z"/><path class="cls-3" d="M206.39,208.78H145.75a4.06,4.06,0,0,1-4-4.05V192.6h64.68Z"/><ellipse class="cls-4" cx="169.84" cy="205.16" rx="8.61" ry="7.83"/><path class="cls-5" d="M170,216.86a12.13,12.13,0,1,1,12.13-12.13h0A12.15,12.15,0,0,1,170,216.86Zm0-16.17a4,4,0,1,0,4,4h0a4,4,0,0,0-4-4Z"/></svg>