<svg xmlns="http://www.w3.org/2000/svg" xmlns:xlink="http://www.w3.org/1999/xlink" width="73" height="73" viewBox="0 0 73 73">
  <defs>
    <linearGradient id="linear-gradient" x1="0.5" y1="1" x2="0.5" gradientUnits="objectBoundingBox">
      <stop offset="0" stop-color="#84bcf2"/>
      <stop offset="1" stop-color="#e2eef8"/>
    </linearGradient>
    <filter id="Ellipse_2448" x="0" y="0" width="73" height="73" filterUnits="userSpaceOnUse">
      <feOffset input="SourceAlpha"/>
      <feGaussianBlur stdDeviation="1.5" result="blur"/>
      <feFlood flood-opacity="0.102"/>
      <feComposite operator="in" in2="blur"/>
      <feComposite in="SourceGraphic"/>
    </filter>
  </defs>
  <g id="Group_10577" data-name="Group 10577" transform="translate(-1261.5 -4938.5)">
    <g transform="matrix(1, 0, 0, 1, 1261.5, 4938.5)" filter="url(#Ellipse_2448)">
      <circle id="Ellipse_2448-2" data-name="Ellipse 2448" cx="32" cy="32" r="32" transform="translate(4.5 4.5)" fill="url(#linear-gradient)"/>
    </g>
    <g id="responsive" transform="translate(1538 5171.454)">
      <g id="responsive-2" data-name="responsive" transform="translate(-256 -209.454)">
        <g id="Group_10555" data-name="Group 10555" transform="translate(16.727 18.182)">
          <g id="Group_10554" data-name="Group 10554">
            <circle id="Ellipse_2451" data-name="Ellipse 2451" cx="0.727" cy="0.727" r="0.727" fill="#444"/>
          </g>
        </g>
        <g id="Group_10557" data-name="Group 10557" transform="translate(4.364 22.545)">
          <g id="Group_10556" data-name="Group 10556" transform="translate(0 0)">
            <circle id="Ellipse_2452" data-name="Ellipse 2452" cx="0.727" cy="0.727" r="0.727" fill="#444"/>
          </g>
        </g>
        <g id="Group_10559" data-name="Group 10559" transform="translate(2.909)">
          <g id="Group_10558" data-name="Group 10558">
            <path id="Path_17375" data-name="Path 17375" d="M73.455,46.545H48.728a2.143,2.143,0,0,0-2.182,2.182V56A.727.727,0,0,0,48,56V48.727A.687.687,0,0,1,48.728,48H73.455a.687.687,0,0,1,.727.727V66.181a.687.687,0,0,1-.727.727H56a.727.727,0,0,0,0,1.454h1.455v2.182a.687.687,0,0,1-.727.727H56a.727.727,0,1,0,0,1.454H66.182a.727.727,0,1,0,0-1.454h-.727a.687.687,0,0,1-.727-.727V68.363h8.727a2.143,2.143,0,0,0,2.182-2.182V48.727A2.143,2.143,0,0,0,73.455,46.545ZM58.764,71.272a2.151,2.151,0,0,0,.145-.727V68.363h4.364v2.182a2.152,2.152,0,0,0,.145.727Z" transform="translate(-46.546 -46.545)" fill="#444"/>
          </g>
        </g>
        <g id="Group_10561" data-name="Group 10561" transform="translate(11.636 16)">
          <g id="Group_10560" data-name="Group 10560">
            <path id="Path_17376" data-name="Path 17376" d="M202.909,302.545h-16a.727.727,0,1,0,0,1.454h16a.727.727,0,1,0,0-1.454Z" transform="translate(-186.182 -302.545)" fill="#444"/>
          </g>
        </g>
        <g id="Group_10563" data-name="Group 10563" transform="translate(0 11.636)">
          <g id="Group_10562" data-name="Group 10562">
            <path id="Path_17377" data-name="Path 17377" d="M8,232.727H2.182A2.143,2.143,0,0,0,0,234.909v10.182a2.143,2.143,0,0,0,2.182,2.182H8a2.143,2.143,0,0,0,2.182-2.182V234.909A2.143,2.143,0,0,0,8,232.727Zm.727,12.364a.687.687,0,0,1-.727.727H2.182a.687.687,0,0,1-.727-.727V234.909a.687.687,0,0,1,.727-.727H8a.687.687,0,0,1,.727.727Z" transform="translate(0 -232.727)" fill="#444"/>
          </g>
        </g>
      </g>
    </g>
  </g>
</svg>
