<svg xmlns="http://www.w3.org/2000/svg" width="128.804" height="128.835" viewBox="0 0 128.804 128.835"><defs><style>.a{fill:#f49512;}</style></defs><g transform="translate(-1.025 -0.95)"><g transform="translate(1.025 0.95)"><g transform="translate(0 42.709)"><path d="M30.708,96.83A2.144,2.144,0,0,1,28.575,94.9L26.846,78.311H16.92a5.471,5.471,0,0,1-5.4-4.89L10.262,60.51H5.05A3.948,3.948,0,0,1,1.523,58.7,3.953,3.953,0,0,1,1.6,54.734L9.11,38.09l-.271-4.8a29.29,29.29,0,0,1,10.18-21.87,2.151,2.151,0,1,1,2.847,3.226A24.6,24.6,0,0,0,13.135,33.17l.3,5.2a2.131,2.131,0,0,1-.185,1.006L5.648,56.2l6.567.013a2.149,2.149,0,0,1,2.142,1.94L15.8,73a1.189,1.189,0,0,0,1.118,1.006H28.782a2.146,2.146,0,0,1,2.137,1.927L32.85,94.456a2.149,2.149,0,0,1-1.914,2.361A2.082,2.082,0,0,1,30.708,96.83Z" transform="translate(-1.025 -10.88)"/></g><g transform="translate(15.924 23.36)"><path d="M39.092,111.857a2.147,2.147,0,0,1-2.133-1.922L34.4,85.979H22.688A5.952,5.952,0,0,1,16.8,80.637L15.326,65.516H9.038a4.244,4.244,0,0,1-3.785-1.922,4.256,4.256,0,0,1,.09-4.249l8.683-19.229L13.713,34.5c0-10.864,5.7-21.194,15.264-27.74A2.147,2.147,0,0,1,31.4,10.3c-8.387,5.75-13.393,14.752-13.393,24.076l.34,6.017a2.122,2.122,0,0,1-.185,1.006L9.227,61.18l8.051.034a2.149,2.149,0,0,1,2.142,1.94l1.664,17.07a1.681,1.681,0,0,0,1.6,1.454H36.331A2.145,2.145,0,0,1,38.468,83.6l2.765,25.882a2.149,2.149,0,0,1-1.91,2.365C39.247,111.852,39.169,111.857,39.092,111.857Z" transform="translate(-4.728 -6.381)"/></g><g transform="translate(35.298)"><path d="M40.373,97.783H29.251a6.449,6.449,0,0,1-6.374-5.789L21.191,74.649H13.82a4.507,4.507,0,0,1-4.034-2.043,4.505,4.505,0,0,1,.116-4.52l9.84-21.818-.357-6.425C19.38,18.342,38.506.95,62.019.95c23.207,0,40.716,18.33,40.716,42.63a56.879,56.879,0,0,1-6.95,27.013,2.15,2.15,0,0,1-3.806-2A52.735,52.735,0,0,0,98.434,43.58c0-21.852-15.655-38.329-36.415-38.329-21.138,0-38.337,15.466-38.337,34.475l.383,6.83a2.114,2.114,0,0,1-.185,1L13.755,70a3.765,3.765,0,0,0-.168.353c.069,0,.138,0,.232,0h9.324A2.149,2.149,0,0,1,25.285,72.3l1.875,19.293a2.162,2.162,0,0,0,2.09,1.892H40.373a2.15,2.15,0,1,1,0,4.3Z" transform="translate(-9.232 -0.95)"/></g></g><g transform="translate(56.827 9.457)"><g transform="translate(0 0)"><path class="a" d="M50.118,67.436H42.385a2.149,2.149,0,0,1-2.1-1.695l-1.273-5.815a25.383,25.383,0,0,1-5.135-2.133l-5.015,3.213a2.147,2.147,0,0,1-2.679-.288l-5.466-5.466a2.148,2.148,0,0,1-.288-2.679l3.213-5.015a25.385,25.385,0,0,1-2.133-5.135l-5.815-1.273A2.145,2.145,0,0,1,14,39.046V31.309a2.145,2.145,0,0,1,1.69-2.1l5.81-1.273A25.69,25.69,0,0,1,23.638,22.8l-3.213-5.015a2.148,2.148,0,0,1,.288-2.679L26.18,9.642a2.147,2.147,0,0,1,2.679-.288l5.015,3.213a25.59,25.59,0,0,1,5.135-2.133l1.273-5.815a2.149,2.149,0,0,1,2.1-1.69h7.737a2.145,2.145,0,0,1,2.1,1.69l1.273,5.819a25.327,25.327,0,0,1,5.135,2.129L63.64,9.353a2.147,2.147,0,0,1,2.684.284L71.79,15.1a2.148,2.148,0,0,1,.288,2.679L68.87,22.806A25.393,25.393,0,0,1,71,27.937l5.819,1.273a2.149,2.149,0,0,1,1.69,2.1v7.737a2.145,2.145,0,0,1-1.69,2.1L71,42.418a25.29,25.29,0,0,1-2.129,5.131l3.213,5.019a2.148,2.148,0,0,1-.288,2.679l-5.466,5.471a2.154,2.154,0,0,1-2.679.288l-5.015-3.217A25.369,25.369,0,0,1,53.5,59.918l-1.273,5.819A2.158,2.158,0,0,1,50.118,67.436Zm-6-4.3h4.275l1.183-5.41a2.158,2.158,0,0,1,1.609-1.639,21.148,21.148,0,0,0,6.361-2.636,2.143,2.143,0,0,1,2.292.017L64.5,56.456l3.023-3.023-2.989-4.666a2.154,2.154,0,0,1-.022-2.288,21.244,21.244,0,0,0,2.641-6.365A2.146,2.146,0,0,1,68.788,38.5l5.41-1.183V33.042l-5.406-1.187a2.153,2.153,0,0,1-1.634-1.609,21.152,21.152,0,0,0-2.641-6.365,2.145,2.145,0,0,1,.021-2.288l2.989-4.666L64.5,13.9l-4.666,2.989a2.143,2.143,0,0,1-2.292.017,21.22,21.22,0,0,0-6.361-2.636,2.146,2.146,0,0,1-1.609-1.634l-1.183-5.41H44.119l-1.183,5.41a2.152,2.152,0,0,1-1.613,1.634,21.091,21.091,0,0,0-6.361,2.636,2.143,2.143,0,0,1-2.292-.017L28,13.9,24.98,16.927l2.989,4.666a2.152,2.152,0,0,1,.017,2.292,21.445,21.445,0,0,0-2.649,6.365,2.136,2.136,0,0,1-1.63,1.6L18.3,33.042v4.275l5.41,1.183a2.153,2.153,0,0,1,1.634,1.608,21.083,21.083,0,0,0,2.636,6.361,2.135,2.135,0,0,1-.017,2.292l-2.989,4.666L28,56.452l4.666-2.989a2.161,2.161,0,0,1,2.292-.017,21.019,21.019,0,0,0,6.361,2.636,2.151,2.151,0,0,1,1.613,1.639Zm2.133-12.9A15.053,15.053,0,1,1,61.3,35.184,15.069,15.069,0,0,1,46.247,50.237Zm0-25.8A10.752,10.752,0,1,0,57,35.184,10.761,10.761,0,0,0,46.247,24.432Z" transform="translate(-14 -2.928)"/></g></g><g transform="translate(75.871 71.634)"><path class="a" d="M48.6,71.356H42.216a2.149,2.149,0,0,1-2.1-1.695l-1-4.58a21.4,21.4,0,0,1-3.9-1.617l-3.957,2.529a2.142,2.142,0,0,1-2.679-.288l-4.516-4.516a2.153,2.153,0,0,1-.288-2.684l2.537-3.948a21.366,21.366,0,0,1-1.621-3.9l-4.576-1a2.153,2.153,0,0,1-1.695-2.1V41.177a2.149,2.149,0,0,1,1.695-2.1l4.576-1a21.24,21.24,0,0,1,1.621-3.9l-2.537-3.957a2.148,2.148,0,0,1,.288-2.679l4.512-4.512a2.142,2.142,0,0,1,2.679-.288l3.957,2.529a21.417,21.417,0,0,1,3.9-1.621l1-4.572a2.153,2.153,0,0,1,2.1-1.695h6.382a2.148,2.148,0,0,1,2.1,1.69l1,4.576a21.405,21.405,0,0,1,3.9,1.621l3.948-2.529a2.154,2.154,0,0,1,2.679.288l4.512,4.512a2.147,2.147,0,0,1,.288,2.679L64.494,34.18a21.674,21.674,0,0,1,1.621,3.9l4.576,1a2.153,2.153,0,0,1,1.695,2.1v6.378a2.149,2.149,0,0,1-1.695,2.1l-4.58,1a21.05,21.05,0,0,1-1.617,3.9L67.023,58.5a2.148,2.148,0,0,1-.288,2.679L62.223,65.7a2.156,2.156,0,0,1-2.679.288L55.6,63.455a21.7,21.7,0,0,1-3.9,1.617l-1,4.585A2.128,2.128,0,0,1,48.6,71.356Zm-4.649-4.3h2.92l.916-4.176A2.158,2.158,0,0,1,49.4,61.245a17.217,17.217,0,0,0,5.135-2.125,2.127,2.127,0,0,1,2.288.017l3.591,2.3,2.064-2.064-2.3-3.6a2.152,2.152,0,0,1-.017-2.292,17.038,17.038,0,0,0,2.125-5.127,2.15,2.15,0,0,1,1.639-1.617l4.172-.912V42.906l-4.163-.912A2.153,2.153,0,0,1,62.3,40.386a17.382,17.382,0,0,0-2.137-5.135,2.134,2.134,0,0,1,.017-2.292l2.3-3.6-2.064-2.064-3.591,2.3a2.154,2.154,0,0,1-2.288.017,17.367,17.367,0,0,0-5.139-2.137,2.141,2.141,0,0,1-1.609-1.63l-.916-4.163H43.945l-.907,4.155a2.153,2.153,0,0,1-1.609,1.634,17.288,17.288,0,0,0-5.135,2.137A2.143,2.143,0,0,1,34,29.591l-3.6-2.3-2.064,2.064,2.31,3.6a2.152,2.152,0,0,1,.017,2.292,17.382,17.382,0,0,0-2.137,5.135,2.14,2.14,0,0,1-1.634,1.609l-4.163.912v2.925l4.163.912a2.153,2.153,0,0,1,1.634,1.608,17.382,17.382,0,0,0,2.137,5.135,2.142,2.142,0,0,1-.017,2.3l-2.305,3.6,2.06,2.06,3.6-2.3a2.161,2.161,0,0,1,2.292-.017,17.029,17.029,0,0,0,5.131,2.125,2.151,2.151,0,0,1,1.613,1.639Zm1.458-9.892A12.795,12.795,0,1,1,58.2,44.368,12.806,12.806,0,0,1,45.407,57.163Zm0-21.285A8.494,8.494,0,1,0,53.9,44.373,8.5,8.5,0,0,0,45.407,35.878Z" transform="translate(-18.428 -17.385)"/></g></g></svg>