<svg xmlns="http://www.w3.org/2000/svg" xmlns:xlink="http://www.w3.org/1999/xlink" width="330.09" height="57.129" viewBox="0 0 330.09 57.129"><defs><style>.a{fill:#FEBC61;}.b{fill:url(#a);}</style><linearGradient id="a" x1="0.024" y1="0.702" x2="0.93" y2="0.271" gradientUnits="objectBoundingBox"><stop offset="0" stop-color="#486d89"/><stop offset="0.72" stop-color="#FEBC61"/></linearGradient></defs><g transform="translate(-278 -12)"><g transform="translate(6520 5891.95)"><path class="a" d="M364.776,928.6a2.622,2.622,0,0,1-2.68-2.68V896.788c0-6.237-1.76-11.352-5.09-14.793a18.289,18.289,0,0,0-24.829.008c-3.353,3.451-5.125,8.566-5.125,14.79v29.134a2.68,2.68,0,1,1-5.357,0V896.788c0-7.608,2.307-13.971,6.67-18.409a22.419,22.419,0,0,1,16.21-6.4c6.525,0,12.142,2.214,16.249,6.4,4.338,4.423,6.63,10.788,6.63,18.407v29.134a2.62,2.62,0,0,1-2.678,2.68Z" transform="translate(-6563.695 -6751.93)"/><path class="a" d="M331.7,905.141c0-15.124,9.441-23.141,21.217-23.141,11.876,0,21.215,8.02,21.215,23.145v29.134a1.016,1.016,0,1,1-2.031,0V905.141c0-14.109-8.416-21.312-19.184-21.312-10.66,0-19.186,7.207-19.186,21.317V934.28a1.016,1.016,0,1,1-2.031,0Z" transform="translate(-6572.032 -6760.283)"/><path class="a" d="M693.376,929.124a27.66,27.66,0,0,1-19.863-8.316,29.116,29.116,0,0,1,0-40.493,27.927,27.927,0,0,1,38.744-.985l.032.028.03.03a2.953,2.953,0,0,1,.892,2.091,3.254,3.254,0,0,1-1,2.181l-23.193,27.567-.052.05a2.7,2.7,0,0,1-2,.895,2.58,2.58,0,0,1-2.575-2.583,2.774,2.774,0,0,1,.729-1.83l21.937-25.975a22.454,22.454,0,0,0-29.739,2.147,24.118,24.118,0,0,0,0,33.266,22.438,22.438,0,0,0,33.73-1.83l.062-.078.072-.07a2.842,2.842,0,0,1,2-.893,2.6,2.6,0,0,1,2.678,2.576,3.18,3.18,0,0,1-.832,2.026A28.067,28.067,0,0,1,693.376,929.124Z" transform="translate(-6850.166 -6751.945)"/><path class="a" d="M675.3,908.9A26.517,26.517,0,0,1,701.7,882a25.957,25.957,0,0,1,17.764,6.9,1.288,1.288,0,0,1,.408.913c0,.3-.1.5-.61,1.116l-23.148,27.506a1.055,1.055,0,0,1-.812.407.912.912,0,0,1-.92-.92,1.1,1.1,0,0,1,.3-.71l23.05-27.3A23.868,23.868,0,0,0,701.7,883.83c-13.5,0-24.362,11.064-24.362,25.074S688.2,933.976,701.7,933.976a23.812,23.812,0,0,0,18.983-9.238,1.213,1.213,0,0,1,.812-.406.937.937,0,0,1,1.015.913,1.512,1.512,0,0,1-.406.915,26.236,26.236,0,0,1-20.4,9.647A26.537,26.537,0,0,1,675.3,908.9Z" transform="translate(-6858.486 -6760.283)"/><path class="a" d="M1068.678,931.144a2.62,2.62,0,0,1-2.678-2.68V902.073L1042.4,930.2l-.052.052a2.738,2.738,0,0,1-2.091.893,2.62,2.62,0,0,1-2.678-2.68V877.71a2.68,2.68,0,0,1,5.357,0v43.837L1066,893.956V877.71a2.678,2.678,0,1,1,5.356,0v43.839l38.119-45.574.052-.052a2.7,2.7,0,0,1,2-.893,2.58,2.58,0,0,1,2.576,2.576,2.77,2.77,0,0,1-.727,1.82l-42.547,50.77-.052.052A2.75,2.75,0,0,1,1068.678,931.144Z" transform="translate(-7160.505 -6754.472)"/><path class="a" d="M1047.568,936.809V886.054a1.016,1.016,0,0,1,2.031,0v48.42l26.393-31.569V886.054a1.015,1.015,0,0,1,2.029,0v48.42l41.011-49.028a1.054,1.054,0,0,1,.812-.406.91.91,0,0,1,.913.913,1.1,1.1,0,0,1-.3.71l-42.533,50.763a1.088,1.088,0,0,1-.913.407.96.96,0,0,1-1.015-1.016V905.849L1049.5,937.427a1.09,1.09,0,0,1-.915.407.959.959,0,0,1-1.015-1.025Z" transform="translate(-7168.834 -6762.817)"/><path class="a" d="M1519.964,928.6a2.62,2.62,0,0,1-2.678-2.68V891.815c0-5.7,1.635-10.563,4.73-14.07,3.327-3.771,8.2-5.765,14.088-5.765a2.58,2.58,0,0,1,2.576,2.578,2.644,2.644,0,0,1-2.576,2.581c-8.43,0-13.463,5.489-13.463,14.68v34.107a2.62,2.62,0,0,1-2.678,2.675Z" transform="translate(-7560.426 -6751.93)"/><path class="a" d="M1527.29,900.151c0-10.354,5.785-18.171,17.155-18.171a.911.911,0,0,1,.913.915.982.982,0,0,1-.913.913c-9.136,0-15.126,5.988-15.126,16.343v34.107a1.015,1.015,0,0,1-2.029,0Z" transform="translate(-7568.767 -6760.266)"/><path class="a" d="M2026.506,933.166a2.62,2.62,0,0,1-2.679-2.678,3.218,3.218,0,0,1,.938-2.132l38.056-45.133h-34.387a2.578,2.578,0,0,1,0-5.156h39.691a2.619,2.619,0,0,1,2.68,2.678,3.211,3.211,0,0,1-.938,2.132l-38.057,45.133h36.417a2.578,2.578,0,0,1,0,5.156Z" transform="translate(-7982.715 -6757.003)"/><path class="a" d="M2074.731,889.891h-37.966a.915.915,0,0,1,0-1.83h39.691a.96.96,0,0,1,1.016,1.015,1.622,1.622,0,0,1-.509,1.015L2036.563,938h40a.915.915,0,0,1,0,1.83h-41.72a.96.96,0,0,1-1.016-1.015,1.615,1.615,0,0,1,.509-1.015Z" transform="translate(-7991.047 -6765.334)"/></g><path class="b" d="M2045.39,1918.349a.575.575,0,0,1,.623-.526c.921.08,1.854.142,2.771.184a.577.577,0,1,1-.051,1.152c-.935-.042-1.883-.105-2.82-.185A.577.577,0,0,1,2045.39,1918.349Zm-36.353,24.423c.873.4,1.767.781,2.662,1.142a2.13,2.13,0,1,1-.529,1.021c-.878-.354-1.755-.73-2.611-1.12a.577.577,0,0,1,.478-1.05Zm4.5,3.514a1.488,1.488,0,1,0-.007,0Zm-10.957-6.25a.577.577,0,0,0,.206.79c.555.323,1.125.645,1.7.955a.576.576,0,0,0,.551-1.013c-.557-.3-1.116-.619-1.661-.939a.573.573,0,0,0-.8.208Zm31.1,2.8a.576.576,0,0,0,.531.618c1.113.083,2.241.139,3.353.17a.577.577,0,1,0,.029-1.154c-1.094-.027-2.208-.082-3.3-.17a.577.577,0,0,0-.624.536Zm-4.881-.587a.576.576,0,0,0,.484.655c.754.112,1.52.213,2.281.3a.577.577,0,1,0,.13-1.145c-.747-.087-1.5-.186-2.242-.3a.578.578,0,0,0-.661.487Zm-15.458-3.808c1.655.7,3.364,1.339,5.078,1.9a.577.577,0,0,0,.358-1.1c-1.685-.552-3.362-1.179-4.988-1.872a.577.577,0,0,0-.448,1.062Zm-9.146-6.134c1.376.885,2.8,1.722,4.235,2.5a2.14,2.14,0,1,1-.6.989c-1.442-.781-2.873-1.622-4.247-2.512a.576.576,0,1,1,.621-.97Zm5.966,4.979a1.478,1.478,0,1,0-.014,0Zm-15.319-11.493a.575.575,0,0,1,.813-.041c.839.759,1.7,1.5,2.577,2.212a2.084,2.084,0,0,1,.752-.429,2.127,2.127,0,1,1-1.379,1.407c-.919-.75-1.836-1.532-2.718-2.338a.578.578,0,0,1-.059-.812Zm5.1,4.688a1.476,1.476,0,1,0-.022,0Zm41.586,6.481a.576.576,0,0,0,.574.579c.53,0,1.063,0,1.587-.013a.577.577,0,0,0-.024-1.154c-.51.01-1.038.015-1.56.013A.576.576,0,0,0,2041.527,1936.963Zm-3.213-.119a.577.577,0,0,0,.545.606c.45.024.9.042,1.345.058a.618.618,0,0,0,.2-.027.577.577,0,0,0-.157-1.126c-.437-.014-.882-.032-1.324-.055a.577.577,0,0,0-.6.541Zm-5.68-.587a.577.577,0,0,0,.492.65c.68.095,1.383.18,2.069.253a.577.577,0,0,0,.123-1.147q-1.02-.109-2.039-.249a.577.577,0,0,0-.649.489Zm-6.776-1.361a.575.575,0,0,0,.421.7c1.505.369,3.048.692,4.587.958a.566.566,0,0,0,.273-.019.577.577,0,0,0-.078-1.118c-1.512-.26-3.029-.579-4.506-.941a.574.574,0,0,0-.7.424Zm-10.989-3.888a.575.575,0,0,0-.275-.768c-1.475-.7-2.944-1.458-4.366-2.27a.577.577,0,0,0-.569,1c1.447.825,2.942,1.6,4.444,2.311A.575.575,0,0,0,2014.869,1931.007Zm-18.482-13.625c-.377-.375-.749-.754-1.108-1.127a.577.577,0,0,0-.829.8c.364.378.742.764,1.125,1.144a.576.576,0,0,0,.812-.818Zm37.526,13.051a.577.577,0,0,0,.2-1.136,65.082,65.082,0,0,1-7.347-1.719.577.577,0,1,0-.326,1.106,66.473,66.473,0,0,0,7.476,1.749Zm-22.2-8.862a.574.574,0,0,1,.788-.2c1.174.694,2.378,1.361,3.6,1.97a2.113,2.113,0,0,1,2.964-.219,2.119,2.119,0,0,1,.717,1.937c1.462.626,2.964,1.207,4.471,1.722a.575.575,0,0,1-.01,1.094.555.555,0,0,1-.36,0c-1.544-.527-3.08-1.121-4.578-1.763a2.115,2.115,0,0,1-3.7-1.727c-1.246-.631-2.485-1.309-3.689-2.02a.577.577,0,0,1-.2-.793Zm6.273,4.084a.961.961,0,0,0,.557-.468.052.052,0,0,1,.012-.039.343.343,0,0,1,.02-.036.962.962,0,1,0-.59.543Zm-11.917-7.2c1.259.939,2.56,1.841,3.868,2.678a.568.568,0,0,0,.486.063.577.577,0,0,0,.134-1.035c-1.286-.824-2.563-1.7-3.8-2.631a.576.576,0,1,0-.679.924Zm37.746,6.694c1.582.114,3.182.17,4.756.17a.616.616,0,0,0,.17-.027.577.577,0,0,0-.17-1.127c-1.546,0-3.119-.058-4.671-.17a.577.577,0,1,0-.083,1.15Zm-1.439-.17a.581.581,0,0,1-.231.025,67.2,67.2,0,0,1-10.206-1.785,2.122,2.122,0,1,1,.34-1.948,2.083,2.083,0,0,1,.088.868,66.126,66.126,0,0,0,9.885,1.717.577.577,0,0,1,.12,1.123Zm-12.4-3.982a.686.686,0,1,1-.007.012Zm-3.684.376a.553.553,0,0,1-.37,0,64.451,64.451,0,0,1-9.1-4.118,2.088,2.088,0,0,1-.849.528,2.122,2.122,0,1,1,1.369-2.67,2.1,2.1,0,0,1,.042,1.133,63.385,63.385,0,0,0,8.935,4.043.575.575,0,0,1-.02,1.091Zm-11.276-6.534a.97.97,0,1,0,1.216.626A.971.971,0,0,0,2015.017,1914.842Zm-4.077-2.646c-1.466-1.048-2.915-2.18-4.3-3.361a.577.577,0,0,0-.746.88c1.415,1.2,2.888,2.352,4.379,3.42a.577.577,0,0,0,.671-.939Zm-6.182-5.011c-.268-.245-.537-.5-.8-.747a.576.576,0,1,0-.79.839q.408.386.817.76a.575.575,0,0,0,.565.123.586.586,0,0,0,.248-.16A.58.58,0,0,0,2004.758,1907.185Zm-3.044-2.945c-.372-.385-.748-.781-1.116-1.179a.579.579,0,1,0-.85.786c.375.4.758.807,1.135,1.191a.578.578,0,0,0,.589.146.561.561,0,0,0,.224-.135A.574.574,0,0,0,2001.714,1904.239Zm38.9,13.478a.575.575,0,0,0,.477.66c.814.131,1.637.247,2.453.341a.561.561,0,0,0,.245-.024.577.577,0,0,0-.105-1.122c-.8-.1-1.612-.212-2.41-.34a.576.576,0,0,0-.659.485Zm-2.5-1.062c-.739-.157-1.487-.327-2.222-.511a.577.577,0,0,0-.275,1.121c.748.184,1.509.357,2.261.51a.553.553,0,0,0,.294-.015.577.577,0,0,0-.058-1.113Zm-15.18-3.957c1.138.552,2.307,1.074,3.474,1.555,1.845.761,3.752,1.445,5.67,2.042a.577.577,0,0,0,.34-1.1c-1.882-.579-3.756-1.251-5.568-2-1.147-.473-2.3-.987-3.411-1.531a.578.578,0,0,0-.51,1.038Zm-1.9-1.155a.577.577,0,0,0,.1-1.058c-1.773-.948-3.526-2-5.208-3.116a.577.577,0,0,0-.637.961c1.712,1.138,3.5,2.212,5.3,3.172a.574.574,0,0,0,.442.041Zm-7.05-5.515a.578.578,0,0,1,.132.8.563.563,0,0,1-.292.213.569.569,0,0,1-.51-.08c-1.02-.733-2.039-1.509-3.024-2.309a2.109,2.109,0,0,1-3.194-1.115,2.107,2.107,0,0,1,.1-1.544c-.994-.907-1.979-1.855-2.931-2.826a.577.577,0,0,1,.822-.808c.929.949,1.889,1.872,2.859,2.76a2.149,2.149,0,0,1,.518-.252,2.117,2.117,0,0,1,2.57,2.9c.958.781,1.947,1.535,2.942,2.251Zm-5.168-4.057a.965.965,0,1,0,.737.058.969.969,0,0,0-.737-.058Zm31.586,9.575a2.119,2.119,0,1,1,.174-1.688,2.061,2.061,0,0,1,.1.568,66.82,66.82,0,0,0,6.861,1.132.577.577,0,0,1,.112,1.123.6.6,0,0,1-.24.024,67.738,67.738,0,0,1-7.011-1.159Zm-2.139-1.962a4.641,4.641,0,1,1-.005,0Zm-2.832.066a.574.574,0,0,1-.722.376,64.626,64.626,0,0,1-7.065-2.7,2.132,2.132,0,1,1,.581-1,63.923,63.923,0,0,0,6.829,2.6.577.577,0,0,1,.372.723Zm-9.552-4.765a.76.76,0,1,0-.005,0Zm-5.229-2.586c-.529-.328-1.057-.669-1.572-1.021-.651-.43-1.3-.881-1.935-1.334a.575.575,0,0,0-.669.936c.644.463,1.306.921,1.967,1.361.525.34,1.063.7,1.6,1.021a.577.577,0,1,0,.608-.979Zm14.874-6.822a.577.577,0,0,0-.328-.747c-.579-.225-1.162-.461-1.731-.7-.72-.3-1.442-.625-2.147-.955a.577.577,0,0,0-.486,1.046c.717.341,1.452.662,2.185.972.579.245,1.172.485,1.761.715A.576.576,0,0,0,2035.522,1895.479Zm-20.267,3.063c-.6-.461-1.189-.941-1.78-1.428a.577.577,0,0,0-.736.888c.6.5,1.2.983,1.811,1.451a.576.576,0,0,0,.705-.912Zm-3.058-2.508c-.466-.407-.937-.83-1.4-1.256a.577.577,0,1,0-.78.851c.469.432.948.863,1.422,1.276a.576.576,0,1,0,.756-.87Zm31.907,9.461a.581.581,0,0,1-.3.014c-1.306-.281-2.613-.607-3.9-.967a2.115,2.115,0,0,1-3.784-.51,2.078,2.078,0,0,1-.1-.7c-1.437-.51-2.869-1.057-4.26-1.655a.576.576,0,0,1,.454-1.059c1.359.582,2.749,1.121,4.146,1.61a2.115,2.115,0,0,1,3.892,1.222c1.247.341,2.519.664,3.79.938a.579.579,0,0,1,.054,1.115Zm-6.256-3.042a.97.97,0,1,0,1.218.628.97.97,0,0,0-1.218-.628Zm-10.287-2.415a2.119,2.119,0,0,1-2.665-1.371,2.163,2.163,0,0,1-.1-.51,66.15,66.15,0,0,1-6.936-4.662.577.577,0,0,1,.7-.916,64.769,64.769,0,0,0,6.506,4.4,2.118,2.118,0,1,1,2.489,3.063Zm-.942-2.942a.968.968,0,1,0,1.216.626.969.969,0,0,0-1.216-.626Zm-5.863,37.543a2.139,2.139,0,0,1-.1-.7c-1.293-.444-2.582-.929-3.837-1.451a.577.577,0,0,1,.442-1.065c1.221.51,2.477.982,3.737,1.414a2.12,2.12,0,1,1-.241,1.8Zm2.939-.945a.967.967,0,1,0-.625,1.219.966.966,0,0,0,.625-1.219Zm-20.6-11.783a2.1,2.1,0,0,1,0,1.317c1.134.866,2.3,1.7,3.482,2.483a.578.578,0,0,1,.17.8.564.564,0,0,1-.3.23.571.571,0,0,1-.494-.068c-1.181-.783-2.353-1.62-3.493-2.488a2.123,2.123,0,1,1,.656-2.273Zm-2.937.944a.967.967,0,1,0,.625-1.219.966.966,0,0,0-.625,1.219Zm22.1,18.614c-.51-.135-1.033-.274-1.542-.42a.577.577,0,0,1,.318-1.108c.486.14.979.272,1.471.4a2.12,2.12,0,1,1-.151,1.649,2.077,2.077,0,0,1-.095-.521Zm2.407.8a.97.97,0,1,0-1.216-.628.97.97,0,0,0,1.216.628Zm-18.94-27.3a2.121,2.121,0,1,1-4.014-.054,72.431,72.431,0,0,1-5.3-5.207.577.577,0,1,1,.849-.781,71.122,71.122,0,0,0,5.123,5.04,2.091,2.091,0,0,1,.679-.369,2.121,2.121,0,0,1,2.664,1.373Zm-2.939.946a.968.968,0,1,0,.059-.739.966.966,0,0,0-.059.739Zm35.005,12.5a2.121,2.121,0,0,1,2.665,1.371,1.966,1.966,0,0,1,.07.3,63.07,63.07,0,0,0,6.455.17.577.577,0,0,1,.19,1.125.528.528,0,0,1-.17.027c-2.18.051-4.4-.009-6.608-.17a2.119,2.119,0,1,1-2.609-2.819Zm.944,2.944a.97.97,0,1,0-1.218-.626.97.97,0,0,0,1.218.626Zm-20.1,13.429a2.121,2.121,0,0,1,2.665,1.373,2.085,2.085,0,0,1,.1.773c.849.191,1.7.369,2.548.528a.579.579,0,0,1,.07,1.118.593.593,0,0,1-.281.017c-.912-.17-1.826-.361-2.726-.568a2.12,2.12,0,1,1-2.378-3.233Zm.945,2.944a.372.372,0,1,0,0,.007Z" transform="translate(-1491.407 -1879.814)"/></g></svg>