<svg xmlns="http://www.w3.org/2000/svg" width="121.33" height="121.33" viewBox="0 0 121.33 121.33"><defs><style>.a{fill:#26221d;}</style></defs><g transform="translate(-7 -7)"><path class="a" d="M67.665,128.33A60.665,60.665,0,1,1,128.33,67.665,60.665,60.665,0,0,1,67.665,128.33Zm0-116.477a55.812,55.812,0,1,0,55.812,55.812A55.812,55.812,0,0,0,67.665,11.853Z"/><path class="a" d="M50.066,128.33C32.645,128.33,19,101.637,19,67.665S32.645,7,50.066,7,81.132,33.693,81.132,67.665,67.487,128.33,50.066,128.33Zm0-116.477c-14.338,0-26.287,25.552-26.287,55.812s11.948,55.812,26.287,55.812S76.353,97.925,76.353,67.665,64.4,11.853,50.066,11.853Z" transform="translate(17.599)"/><path class="a" d="M106.3,57.427a2.381,2.381,0,0,1-1.3-.395C94.214,49.978,78,45.933,60.382,45.933s-33.833,4.045-44.587,11.1a2.376,2.376,0,0,1-2.482.211,2.491,2.491,0,0,1-.128-4.355C24.664,45.341,41.87,41,60.382,41s35.718,4.341,47.2,11.889a2.491,2.491,0,0,1,1.011,2.755A2.425,2.425,0,0,1,106.3,57.427Z" transform="translate(7.282 48.294)"/><path class="a" d="M60.383,32.809c-18.512,0-35.719-4.341-47.2-11.889a2.491,2.491,0,0,1,.128-4.355,2.376,2.376,0,0,1,2.482.211c10.754,7.054,26.97,11.1,44.588,11.1s33.834-4.045,44.588-11.1a2.376,2.376,0,0,1,2.482-.211,2.491,2.491,0,0,1,.128,4.355C96.1,28.468,78.895,32.809,60.383,32.809Z" transform="translate(7.282 13.226)"/><path class="a" d="M125.9,35.933H9.427a2.467,2.467,0,0,1,0-4.933H125.9a2.467,2.467,0,0,1,0,4.933Z" transform="translate(0 34.198)"/><path class="a" d="M33.467,128.33A2.447,2.447,0,0,1,31,125.9V9.427a2.467,2.467,0,0,1,4.933,0V125.9A2.447,2.447,0,0,1,33.467,128.33Z" transform="translate(34.198)"/></g></svg>