<svg xmlns="http://www.w3.org/2000/svg" width="161.527" height="145.7" viewBox="0 0 161.527 145.7"><defs><style>.a{fill:#efefef;}.b{fill:#a4afc1;}.c{fill:#f3f3f1;}.d{fill:#d5dbe1;}.e{fill:#febc61;}</style></defs><g transform="translate(-0.583 -2.29)"><path class="a" d="M145.495,30.516c0,32.075,16.615,54.1,16.615,69.558s-8.885,47.916-79.987,47.916S.583,104.322.583,87.322c0-79.606,144.912-113.611,144.912-56.805Z" transform="translate(0 0)"/><g transform="translate(134.739 11.811)"><path class="b" d="M0,0H3.642V7.283H0Z" transform="translate(0 2.575) rotate(-45)"/><path class="b" d="M0,0H3.642V7.283H0Z" transform="translate(14.804 17.378) rotate(-45)"/><path class="b" d="M0,0H7.283V3.642H0Z" transform="translate(14.172 5.169) rotate(-45)"/></g><path class="c" d="M71.579,32.691c-4.727,0-10.215,2.287-15.477,3.9v-1.57a7.29,7.29,0,0,0-5.827-7.138L15.206,20.71,9.78,40.448C16.736,43.725,34.652,51.81,43.356,51.81c10.925,0,37.327-14.567,37.327-14.567S78.862,32.691,71.579,32.691Z" transform="translate(45.055 79.939)"/><path class="d" d="M50.7,10.75H23.392a3.652,3.652,0,0,0-3.642,3.642V30.779a3.652,3.652,0,0,0,3.642,3.642H50.7a3.643,3.643,0,0,0,3.642-3.642V14.392A3.643,3.643,0,0,0,50.7,10.75Z" transform="translate(76.87 32.967)"/><path class="e" d="M6.75,18.75V49.7h8.194V19.478A44.266,44.266,0,0,0,6.75,18.75Z" transform="translate(22.854 65.945)"/><path class="d" d="M17.974,40.448,22.963,22.3,15.206,20.71,9.78,40.448C16.736,43.725,34.652,51.81,43.356,51.81a20.748,20.748,0,0,0,3.922-.477C37.915,49.574,23.931,43.255,17.974,40.448Z" transform="translate(37.294 79.939)"/><path class="e" d="M14.944,26.779V10.392A3.652,3.652,0,0,1,18.585,6.75H10.392A3.652,3.652,0,0,0,6.75,10.392V26.779a3.652,3.652,0,0,0,3.642,3.642h8.194A3.652,3.652,0,0,1,14.944,26.779Z" transform="translate(23.062 11.782)"/><path d="M50.7,39.133H27.033V33.671H50.7a.92.92,0,0,0,.91-.91V16.373a.92.92,0,0,0-.91-.91H19.75V10H50.7a6.38,6.38,0,0,1,6.373,6.373V32.76A6.38,6.38,0,0,1,50.7,39.133Z" transform="translate(77.67 30.664)"/><path d="M24.5,13h9.1v5.462H24.5Z" transform="translate(88.831 39.489)"/><path d="M32.4,35.133H12.373A6.38,6.38,0,0,1,6,28.76V12.373A6.38,6.38,0,0,1,12.373,6H43.327v5.462H12.373a.92.92,0,0,0-.91.91V28.76a.92.92,0,0,0,.91.91H32.4Z" transform="translate(21.951 9.8)"/><path d="M22.712,33H17.25V30.266A17.535,17.535,0,0,1,34.766,12.75h3.423v5.462H34.766A12.068,12.068,0,0,0,22.712,30.266Z" transform="translate(63.901 40.284)"/><path d="M34.5,58.331H29.042V34.66a21.064,21.064,0,0,0-13.7-19.654l-2.56-.95,1.9-5.12,2.56.95A26.538,26.538,0,0,1,34.5,34.66V58.331Z" transform="translate(46.894 29.199)"/><path d="M18.746,54.416H8.731A2.732,2.732,0,0,1,6,51.685V20.731A2.732,2.732,0,0,1,8.731,18c12.768,0,18.711,4.432,18.955,4.621a2.73,2.73,0,0,1,.98,2.884L21.382,52.4A2.73,2.73,0,0,1,18.746,54.416Zm-7.283-5.462h5.193l6.183-22.837a30.939,30.939,0,0,0-11.376-2.575Z" transform="translate(20.882 64.442)"/><path d="M44.2,47.828c-8.758,0-25.524-7.283-34.738-11.62l2.327-4.942c14.974,7.057,26.788,11.1,32.411,11.1,7.385,0,24.151-7.979,32.939-12.582a9.349,9.349,0,0,0-4.716-1.074c-3.2,0-7.152,1.318-10.972,2.589-4.235,1.413-8.612,2.873-12.7,2.873-7.673,0-17.8-3.649-18.23-3.806l1.865-5.135c.095.036,9.658,3.478,16.366,3.478,3.2,0,7.152-1.318,10.972-2.589,4.235-1.413,8.612-2.873,12.7-2.873,9.028,0,11.537,6.012,11.639,6.271a2.731,2.731,0,0,1-1.216,3.4C81.744,33.531,55.7,47.828,44.2,47.828Z" transform="translate(44.991 86.651)"/><path d="M55.3,38.6H49.833V36.963A4.571,4.571,0,0,0,46.192,32.5L11.119,25.328l1.1-5.353,35.073,7.174A10.05,10.05,0,0,1,55.3,36.963Z" transform="translate(43.926 67.747)"/><path d="M9,9.5h9.1v5.462H9Z" transform="translate(31.262 26.584)"/></g></svg>