<svg xmlns="http://www.w3.org/2000/svg" width="158.16" height="85.176" viewBox="0 0 158.16 85.176">
  <g id="Group_10597" data-name="Group 10597" transform="translate(-598 -1375)">
    <path id="Path_17427" data-name="Path 17427" d="M642.427,1409.514c-.024.588-1.41,1.375-1.862,1.663-2.089,1.318-5.088,2.2-7.046.238a4.518,4.518,0,0,1,.682-6.68,8.708,8.708,0,0,1,3.757-1.029,31.363,31.363,0,0,1,4.445-.177l.024,5.985ZM628.3,1391.258l.819,3.224c1.377-.337,2.2-.822,4.282-1.232a16.294,16.294,0,0,1,5.1-.27,3.707,3.707,0,0,1,3.311,2.173,7.048,7.048,0,0,1,.555,2.225l-.021,2.605c-.115.059-5.212.38-5.943.475-5.088.653-10.21,3.417-9.412,9.809.494,3.978,2.638,5.789,6.655,6.274a9.663,9.663,0,0,0,5.482-.757,14.691,14.691,0,0,0,2.135-1.114,19.466,19.466,0,0,0,1.807-1.42l.539,2.732h4.127c.076-.834.016-11.057.016-12.193v-6.112a8.776,8.776,0,0,0-1.074-5c-2.8-4.455-8.878-4.243-13.9-3.034-1.122.269-3.79,1.008-4.479,1.61Z" transform="translate(58.756 28.247)" fill="#e60019"/>
    <path id="Path_17428" data-name="Path 17428" d="M658.776,1409.838c-.355.2-.728.561-1.138.859a9.3,9.3,0,0,1-4.142,1.8c-4.551.563-5.621-4.128-4.16-6.546,1.564-2.581,6.519-2.437,9.454-2.451l-.015,6.334Zm-14.1-18.593a18.268,18.268,0,0,0,.855,3.214c.768-.161,2.453-.868,4.3-1.229,2.678-.532,7.077-.973,8.363,1.909.525,1.182.907,4.443.534,4.814a18.945,18.945,0,0,1-2.978.223c-2.953.189-5.4.41-7.959,1.758a7.673,7.673,0,0,0-4.419,8.338c.51,4,2.653,5.755,6.662,6.255a10.951,10.951,0,0,0,7.616-1.874,17.588,17.588,0,0,0,1.811-1.438l.518,2.749,4.151,0v-18.3a8.79,8.79,0,0,0-1.1-5.042c-2.7-4.432-8.951-4.139-13.86-2.988a16.162,16.162,0,0,0-4.49,1.609Z" transform="translate(92.029 28.261)" fill="#e60019"/>
    <path id="Path_17429" data-name="Path 17429" d="M643.1,1415.636l6.615,0c.221-.055.685-1.124.813-1.377.252-.516.449-.979.682-1.491.446-.972.855-2.05,1.244-3.084a123.775,123.775,0,0,0,3.99-13.414c.27-1.1,1.543-6.41,1.543-7.169l-4.945,0c-1.083-.013-.643-.152-.934,2.052a57.526,57.526,0,0,1-1.328,6.723c-.406,1.574-3.208,11.568-3.769,12.212l-1.413-5.352c-.53-1.783-1.016-3.5-1.573-5.245l-2.44-7.766c-.279-.873-.543-1.809-.864-2.61l-5.85-.012c.025.515,3.842,12.446,4.1,13.289.7,2.272,1.377,4.358,2.066,6.593.669,2.2,1.456,4.472,2.065,6.651Z" transform="translate(74.929 28.644)" fill="#e60019"/>
    <path id="Path_17430" data-name="Path 17430" d="M627.521,1394.9l0,22.972c0,4.269-1.394,9.138-5.678,10.538.249.521,2.1,2.413,2.586,3.147a11.116,11.116,0,0,0,4.387-2.35,11.893,11.893,0,0,0,2.893-3.918c1.816-3.7,1.525-7.616,1.525-12.055,0-9.065.045-18.14,0-27.2-.667-.124-4.588-.045-5.716-.04l0,8.91Z" transform="translate(48.456 22.282)" fill="#e60019"/>
    <path id="Path_17431" data-name="Path 17431" d="M615.626,1421.147l-1.8-2.616c-.591-.857-1.17-1.813-1.719-2.764a25.6,25.6,0,0,1-2.774-6.2c-1.016-4.052,1.488-6.562,3.7-9.218.333-.4.725-.782,1.085-1.162,2.314-2.438,5.479-5.352,7.944-7.753a13.322,13.322,0,0,0,4.312-9.129c.157-2.07-.243-6.507-1.707-7.308.436,3.108.536,5.221-.722,8.346-1.458,3.63-3.832,5.8-6.589,7.943-2.25,1.754-5.934,4.916-7.878,6.743a18.755,18.755,0,0,0-4.263,5.407c-1.3,3.078-.009,5.092,1.385,7.244.664,1.025,1.337,1.9,2.046,2.82.828,1.07,1.562,1.811,2.226,2.651.7.888,1.562,1.7,2.323,2.549a30.072,30.072,0,0,0,2.432,2.445Z" transform="translate(13.566)" fill="#e60019"/>
    <path id="Path_17432" data-name="Path 17432" d="M655.9,1399.521c.882,1.426.009,2.026-1.2,2.592-5.358,2.509-23.478,2.977-29.136,3.063a92.239,92.239,0,0,1-17.152-1.124c-.9-.155-4.876-.787-5.061-1.842-.122-.662.582-1.16.942-1.389a17.6,17.6,0,0,1,5.246-1.64,15.542,15.542,0,0,0,1.946-.346c-2.7-.4-11.252,1.048-13.126,3.709-1.18,1.673.8,2.449,2.113,2.882,4.93,1.609,15.192,1.934,20.607,2.012,8.087.11,27.556.03,34.691-4.873.415-.282,1.234-.879,1.316-1.458.1-.72-.752-1.4-1.188-1.586Z" transform="translate(0 48.305)" fill="#007abd"/>
    <path id="Path_17433" data-name="Path 17433" d="M611.307,1412.906a20.382,20.382,0,0,0,4.081-3.075c.9-.932,2.423-2.651,2.553-4.642.119-1.807-1.127-4.16-1.892-5.315-2.4-3.648-4.329-5.738-1.07-9.785a24.742,24.742,0,0,1,3.651-3.541,68.891,68.891,0,0,1,6.3-4.452l2.206-1.419a42.074,42.074,0,0,0-5.485,1.846,36.642,36.642,0,0,0-4.964,2.388c-4.918,2.84-9.754,7.291-7.776,13.443,1.34,4.161,5.238,6.657,4.957,9.773-.169,1.911-2.008,3.823-2.559,4.78Z" transform="translate(21.246 11.536)" fill="#e60019"/>
    <path id="Path_17434" data-name="Path 17434" d="M631.995,1400.7a24.13,24.13,0,0,1-4-2.035c-.783-.471-.482-.432-1.486-.183-4.09,1.007-10.725,1.021-15.021.893-1.1-.034-4.212-.13-4.839-1.171-.4-.657.146-1.135.358-1.506-2.817.565-5.683,2.9-1.767,4.85,4.406,2.185,13.665,2.213,18.487,1.354,1.374-.243,7.611-1.666,8.268-2.2Z" transform="translate(10.826 44.091)" fill="#007abd"/>
    <path id="Path_17435" data-name="Path 17435" d="M634.983,1397.7a7.394,7.394,0,0,1-2.922-1.648c-.625-.533-.409-.4-1.75-.175-4.815.8-19.154,2.2-23.259.512-.535-.221-1.147-.549-1.186-1.177-.042-.743.588-1.146.852-1.553-3.3.41-6.468,3.594-2.047,5.113,4.985,1.708,15.737,1.765,21.037,1.094,1.746-.221,7.938-1.428,9.275-2.167Z" transform="translate(9.142 37.911)" fill="#007abd"/>
    <path id="Path_17436" data-name="Path 17436" d="M642.855,1393.509a20.1,20.1,0,0,0-2.1.325c-.737.109-1.437.215-2.171.312-4.414.618-9.305,1.119-13.724,1.375-3.45.206-16.458.635-18.4-1.179-.143-.812.791-1.323,1.361-1.636,2.232-1.2,4.6-1.6,6.8-2.289-3.036-.284-10.671,1.9-13.43,3.627-2.984,1.858,1.989,2.6,3.851,2.859,10.892,1.518,21.077.7,31.846-.825,1.756-.25,2.132-.15,3.326-.909.824-.527,1.907-1.08,2.641-1.659Z" transform="translate(4.588 31.276)" fill="#007abd"/>
    <path id="Path_17437" data-name="Path 17437" d="M601.892,1405.888c3.041,1.276,9.663,2.053,13.1,2.331a101.287,101.287,0,0,0,14.964-.036c6.252-.446,13.669-1.161,19.169-3.954,1.31-.666,3.666-2.259,3.894-3.791a8.8,8.8,0,0,0-1.1.783c-9.7,6.68-31.88,6.043-43.326,5.227l-6.7-.561Z" transform="translate(7.909 51.696)" fill="#007abd"/>
    <path id="Path_17438" data-name="Path 17438" d="M616.281,1391.469a7.16,7.16,0,0,1,6.586,1.089c1.628,1.452,1.646,4.2.473,6.333-1.571,2.845-4.867,5.379-7.6,7.093-.471.294-.922.518-1.329.819,1.763-.189,5.935-2.071,7.522-3.054,2.026-1.252,4.291-3.078,5.222-5.446a5.636,5.636,0,0,0-2.668-7.14,7.76,7.76,0,0,0-4.291-1.043c-1.276.051-3.344.561-3.92,1.349Z" transform="translate(33.36 30.71)" fill="#007abd"/>
  </g>
</svg>
