<svg xmlns="http://www.w3.org/2000/svg" xmlns:xlink="http://www.w3.org/1999/xlink" width="139.653" height="85.515" viewBox="0 0 139.653 85.515">
  <defs>
    <linearGradient id="linear-gradient" x1="0.682" y1="0.175" x2="0.278" y2="0.898" gradientUnits="objectBoundingBox">
      <stop offset="0" stop-color="#41873f"/>
      <stop offset="0.329" stop-color="#418b3d"/>
      <stop offset="0.635" stop-color="#419637"/>
      <stop offset="0.932" stop-color="#3fa92d"/>
      <stop offset="1" stop-color="#3fae2a"/>
    </linearGradient>
    <linearGradient id="linear-gradient-2" x1="0.433" y1="0.552" x2="1.592" y2="-0.183" gradientUnits="objectBoundingBox">
      <stop offset="0.138" stop-color="#41873f"/>
      <stop offset="0.403" stop-color="#54a044"/>
      <stop offset="0.714" stop-color="#66b848"/>
      <stop offset="0.908" stop-color="#6cc04a"/>
    </linearGradient>
    <linearGradient id="linear-gradient-3" x1="-44.138" y1="0.134" x2="53.279" y2="0.134" gradientUnits="objectBoundingBox">
      <stop offset="0.092" stop-color="#6cc04a"/>
      <stop offset="0.286" stop-color="#66b848"/>
      <stop offset="0.597" stop-color="#54a044"/>
      <stop offset="0.862" stop-color="#41873f"/>
    </linearGradient>
    <linearGradient id="linear-gradient-4" x1="-0.044" y1="0.5" x2="1.015" y2="0.5" xlink:href="#linear-gradient-3"/>
    <linearGradient id="linear-gradient-5" x1="-97.138" y1="0.362" x2="0.279" y2="0.362" xlink:href="#linear-gradient-3"/>
    <linearGradient id="linear-gradient-6" x1="-1.039" y1="0.503" x2="1.008" y2="0.503" xlink:href="#linear-gradient-3"/>
    <linearGradient id="linear-gradient-7" x1="1.306" y1="-2.111" x2="0.044" y2="2.016" xlink:href="#linear-gradient"/>
  </defs>
  <g id="nodejs-seeklogo.com" transform="translate(-0.231)">
    <path id="Path_17411" data-name="Path 17411" d="M212.534,221.651a2.768,2.768,0,0,1-1.326-.347l-4.2-2.494c-.631-.347-.316-.474-.126-.537a7.647,7.647,0,0,0,1.894-.852.29.29,0,0,1,.316.032l3.22,1.926a.4.4,0,0,0,.379,0l12.6-7.292a.363.363,0,0,0,.189-.347V197.187a.363.363,0,0,0-.189-.347l-12.6-7.26a.4.4,0,0,0-.379,0l-12.6,7.26a.4.4,0,0,0-.189.347v14.552a.4.4,0,0,0,.189.347l3.441,1.989c1.862.947,3.03-.158,3.03-1.263V198.449a.384.384,0,0,1,.379-.379h1.61a.384.384,0,0,1,.379.379v14.363c0,2.494-1.357,3.946-3.725,3.946a5.415,5.415,0,0,1-2.9-.789l-3.315-1.894a2.664,2.664,0,0,1-1.326-2.3V197.218a2.664,2.664,0,0,1,1.326-2.3l12.6-7.292a2.817,2.817,0,0,1,2.652,0l12.6,7.292a2.664,2.664,0,0,1,1.326,2.3v14.552a2.664,2.664,0,0,1-1.326,2.3l-12.6,7.292A3.231,3.231,0,0,1,212.534,221.651Zm3.883-10.007c-5.524,0-6.661-2.525-6.661-4.672a.384.384,0,0,1,.379-.379h1.641a.324.324,0,0,1,.347.316c.253,1.673.979,2.494,4.325,2.494,2.652,0,3.788-.6,3.788-2.02,0-.821-.316-1.421-4.451-1.831-3.441-.347-5.587-1.1-5.587-3.851,0-2.557,2.147-4.072,5.745-4.072,4.041,0,6.029,1.389,6.282,4.419a.509.509,0,0,1-.095.284.39.39,0,0,1-.253.126h-1.641a.37.37,0,0,1-.347-.284c-.379-1.736-1.357-2.3-3.946-2.3-2.9,0-3.251,1.01-3.251,1.768,0,.915.41,1.2,4.325,1.7,3.883.505,5.714,1.231,5.714,3.946C222.7,210.066,220.426,211.644,216.417,211.644Z" transform="translate(-143.235 -136.136)" fill="#539e43"/>
    <path id="Path_17412" data-name="Path 17412" d="M30.22,79.929A1.606,1.606,0,0,0,29.4,78.54l-13.384-7.7a1.943,1.943,0,0,0-.726-.221h-.126a1.5,1.5,0,0,0-.726.221L1.052,78.54a1.606,1.606,0,0,0-.821,1.389l.032,20.708a.784.784,0,0,0,.41.694.716.716,0,0,0,.789,0l7.955-4.546a1.606,1.606,0,0,0,.821-1.389V85.706a1.606,1.606,0,0,1,.821-1.389l3.378-1.957a1.529,1.529,0,0,1,.821-.221,1.356,1.356,0,0,1,.789.221l3.378,1.957a1.606,1.606,0,0,1,.821,1.389V95.4a1.606,1.606,0,0,0,.821,1.389l7.955,4.546a.77.77,0,0,0,.821,0,.784.784,0,0,0,.41-.694L30.22,79.929Z" transform="translate(0 -51.329)" fill="#333"/>
    <path id="Path_17413" data-name="Path 17413" d="M289.117.095a.869.869,0,0,0-.789,0,.823.823,0,0,0-.41.694V21.308a.568.568,0,0,1-.852.505l-3.346-1.926a1.627,1.627,0,0,0-1.61,0l-13.384,7.734a1.606,1.606,0,0,0-.821,1.389V44.446a1.606,1.606,0,0,0,.821,1.389l13.384,7.734a1.627,1.627,0,0,0,1.61,0L297.1,45.835a1.606,1.606,0,0,0,.821-1.389V5.966a1.619,1.619,0,0,0-.821-1.421L289.117.095Zm-1.231,39.269a.363.363,0,0,1-.189.347l-4.577,2.652a.468.468,0,0,1-.41,0l-4.577-2.652a.4.4,0,0,1-.189-.347v-5.3a.363.363,0,0,1,.189-.347l4.577-2.652a.468.468,0,0,1,.41,0l4.577,2.652a.4.4,0,0,1,.189.347v5.3Z" transform="translate(-194.564)" fill="#333"/>
    <g id="Group_10592" data-name="Group 10592" transform="translate(109.99 19.485)">
      <path id="Path_17414" data-name="Path 17414" d="M30.145,15.288a1.577,1.577,0,0,0,.789-1.389V10.142a1.644,1.644,0,0,0-.789-1.389l-13.29-7.7a1.627,1.627,0,0,0-1.61,0L1.861,8.785a1.606,1.606,0,0,0-.821,1.389V25.61A1.606,1.606,0,0,0,1.861,27l13.29,7.576a1.568,1.568,0,0,0,1.578,0l8.05-4.483a.793.793,0,0,0,0-1.389L11.331,20.97a.823.823,0,0,1-.41-.694v-4.83a.784.784,0,0,1,.41-.694l4.2-2.4a.771.771,0,0,1,.821,0l4.2,2.4a.823.823,0,0,1,.41.694v3.788a.784.784,0,0,0,.41.694.77.77,0,0,0,.821,0l7.955-4.64Z" transform="translate(-1.04 -0.838)" fill="#333"/>
      <path id="Path_17415" data-name="Path 17415" d="M48.02,50.958a.287.287,0,0,1,.316,0l2.557,1.484a.332.332,0,0,1,.158.284v2.967a.332.332,0,0,1-.158.284l-2.557,1.484a.287.287,0,0,1-.316,0l-2.557-1.484a.332.332,0,0,1-.158-.284V52.726a.332.332,0,0,1,.158-.284l2.557-1.484Z" transform="translate(-33.215 -37.235)" fill="#539e43"/>
    </g>
    <g id="Group_10596" data-name="Group 10596" transform="translate(36.786 16.952)">
      <path id="Path_17416" data-name="Path 17416" d="M16.151,1.282a1.627,1.627,0,0,0-1.61,0L1.251,8.953a1.577,1.577,0,0,0-.789,1.389V25.715A1.644,1.644,0,0,0,1.251,27.1l13.29,7.671a1.627,1.627,0,0,0,1.61,0L29.441,27.1a1.577,1.577,0,0,0,.789-1.389V10.342a1.644,1.644,0,0,0-.789-1.389L16.151,1.282Z" transform="translate(-0.336 1.527)" fill="url(#linear-gradient)"/>
      <g id="Group_10593" data-name="Group 10593" transform="translate(0 2.591)">
        <path id="Path_17417" data-name="Path 17417" d="M14.174,1.269.852,8.94A1.637,1.637,0,0,0,0,10.328V25.7a1.52,1.52,0,0,0,.41,1.01L15.373,1.079a1.8,1.8,0,0,0-1.2.189Z" transform="translate(0 -1.051)" fill="none"/>
        <path id="Path_17418" data-name="Path 17418" d="M56.632,56.67a1.931,1.931,0,0,0,.379-.158l13.321-7.671a1.606,1.606,0,0,0,.821-1.389V32.079a1.608,1.608,0,0,0-.474-1.1L56.632,56.67Z" transform="translate(-41.164 -22.801)" fill="none"/>
        <path id="Path_17419" data-name="Path 17419" d="M30.229,9.1,16.876,1.429a2.192,2.192,0,0,0-.41-.158L1.5,26.9a1.661,1.661,0,0,0,.442.379L15.3,34.953a1.539,1.539,0,0,0,1.231.158l14.047-25.7a1.655,1.655,0,0,0-.347-.316Z" transform="translate(-1.092 -1.211)" fill="url(#linear-gradient-2)"/>
      </g>
      <g id="Group_10595" data-name="Group 10595" transform="translate(0 0)">
        <g id="Group_10594" data-name="Group 10594" transform="translate(0 0)">
          <path id="Path_17420" data-name="Path 17420" d="M70.649,35.024V19.651a1.637,1.637,0,0,0-.852-1.389L56.444,10.591a1.4,1.4,0,0,0-.505-.189l14.616,24.97a.636.636,0,0,0,.095-.347Z" transform="translate(-40.66 -7.782)" fill="none"/>
          <path id="Path_17421" data-name="Path 17421" d="M.852,39.1A1.637,1.637,0,0,0,0,40.485V55.858a1.707,1.707,0,0,0,.852,1.389l13.353,7.671a1.487,1.487,0,0,0,1.042.189L.947,39.065.852,39.1Z" transform="translate(0 -28.616)" fill="none"/>
          <path id="Path_17422" data-name="Path 17422" d="M49.887.809,49.7.9h.253Z" transform="translate(-36.124 -0.809)" fill="url(#linear-gradient-3)"/>
          <path id="Path_17423" data-name="Path 17423" d="M31.6,36.337a1.8,1.8,0,0,0,.789-1.01l-14.647-25a1.6,1.6,0,0,0-1.136.189L3.352,18.154l14.3,26.074a2.2,2.2,0,0,0,.6-.189l13.353-7.7Z" transform="translate(-2.436 -7.705)" fill="url(#linear-gradient-4)"/>
          <path id="Path_17424" data-name="Path 17424" d="M111.047,104.291l-.095-.158v.221Z" transform="translate(-80.648 -75.913)" fill="url(#linear-gradient-5)"/>
          <path id="Path_17425" data-name="Path 17425" d="M69.744,102.864l-13.321,7.671a1.9,1.9,0,0,1-.6.189l.253.474,14.773-8.555v-.189l-.379-.631a1.467,1.467,0,0,1-.726,1.042Z" transform="translate(-40.576 -74.233)" fill="url(#linear-gradient-6)"/>
          <path id="Path_17426" data-name="Path 17426" d="M69.744,102.864l-13.321,7.671a1.9,1.9,0,0,1-.6.189l.253.474,14.773-8.555v-.189l-.379-.631a1.467,1.467,0,0,1-.726,1.042Z" transform="translate(-40.576 -74.233)" fill="url(#linear-gradient-7)"/>
        </g>
      </g>
    </g>
  </g>
</svg>
