<svg xmlns="http://www.w3.org/2000/svg" xmlns:xlink="http://www.w3.org/1999/xlink" width="209.039" height="60.67" viewBox="0 0 209.039 60.67">
  <defs>
    <linearGradient id="linear-gradient" x1="1.337" y1="-0.878" x2="2.662" y2="-2.007" gradientUnits="objectBoundingBox">
      <stop offset="0" stop-color="#5a9fd4"/>
      <stop offset="1" stop-color="#306998"/>
    </linearGradient>
    <linearGradient id="linear-gradient-2" x1="2.82" y1="-3.011" x2="2.348" y2="-2.354" gradientUnits="objectBoundingBox">
      <stop offset="0" stop-color="#ffd43b"/>
      <stop offset="1" stop-color="#ffe873"/>
    </linearGradient>
    <radialGradient id="radial-gradient" cx="0.5" cy="0.5" r="0.5" gradientUnits="objectBoundingBox">
      <stop offset="0" stop-color="#b8b8b8" stop-opacity="0.498"/>
      <stop offset="1" stop-color="#7f7f7f" stop-opacity="0"/>
    </radialGradient>
  </defs>
  <g id="g2303" transform="translate(-183.544 -228.739)">
    <path id="path46" d="M342.352,271.5q0-9.617-5.484-9.883a10.307,10.307,0,0,0-4.257.7,6.255,6.255,0,0,0-2.236,1.18v15.3a10.863,10.863,0,0,0,6.227,2.042Q342.35,280.46,342.352,271.5Zm4.51.266a13.6,13.6,0,0,1-2.3,8.111,8.481,8.481,0,0,1-7.119,3.755,12.626,12.626,0,0,1-7.068-2.145v13.908l-3.922-1.4V263.12a8.768,8.768,0,0,1,2.476-2.042,16.994,16.994,0,0,1,8.51-2.094l.055.055a7.808,7.808,0,0,1,7.055,3.755A15.959,15.959,0,0,1,346.862,271.763Z" transform="translate(-79.991 -16.929)" fill="#646464"/>
    <path id="path48" d="M402.194,280.891q0,6.554-1.313,9.076a9.252,9.252,0,0,1-5.025,4.025,19.223,19.223,0,0,1-6.5,1.292l-.648-2.472a31.209,31.209,0,0,0,4.995-.966,6.6,6.6,0,0,0,3.922-2.953q.862-1.615.858-6.175V281.7a20.138,20.138,0,0,1-8.432,1.824,7.748,7.748,0,0,1-5.1-1.824,6.205,6.205,0,0,1-2.472-5.046V260.327l3.922-1.343v16.431a5,5,0,0,0,1.7,4.055,6.423,6.423,0,0,0,4.4,1.369,11,11,0,0,0,5.772-2.094V259.576h3.922Z" transform="translate(-111.351 -16.929)" fill="#646464"/>
    <path id="path50" d="M448.036,274.063c-.468.039-.9.055-1.291.055a7.72,7.72,0,0,1-5.184-1.588,5.485,5.485,0,0,1-1.849-4.39V252.692h-2.687v-2.467h2.687v-6.553l3.917-1.395v7.948h4.407v2.467h-4.407v15.341a3.716,3.716,0,0,0,1.184,3.124,5.989,5.989,0,0,0,3.223.862Z" transform="translate(-141.881 -7.578)" fill="#646464"/>
    <path id="path52" d="M491.665,266.163h-3.923V251.023a7.158,7.158,0,0,0-1.077-3.973,3.92,3.92,0,0,0-3.455-1.88q-2.7,0-6.746,2.845v18.148h-3.922V229.974l3.922-1.235v16.483a13.67,13.67,0,0,1,8.218-2.738,6.55,6.55,0,0,1,5.047,2.094,7.375,7.375,0,0,1,1.936,5.21v16.375Z" transform="translate(-161.763)" fill="#646464"/>
    <path id="path54" d="M541.406,270.879a12.05,12.05,0,0,0-1.4-6.107,5.857,5.857,0,0,0-5.154-3.1q-6.449.374-6.445,9.235a15.19,15.19,0,0,0,1.347,6.784,5.418,5.418,0,0,0,5.176,3.416Q541.407,281.054,541.406,270.879Zm4.3.026a13.95,13.95,0,0,1-2.687,8.754,9.661,9.661,0,0,1-8.162,3.918,9.468,9.468,0,0,1-8.059-3.918,14.136,14.136,0,0,1-2.631-8.754,12.5,12.5,0,0,1,2.845-8.325,9.8,9.8,0,0,1,7.9-3.6,9.966,9.966,0,0,1,7.952,3.6A12.5,12.5,0,0,1,545.7,270.905Z" transform="translate(-190.657 -16.929)" fill="#646464"/>
    <path id="path56" d="M600.049,283.092h-3.922v-16a5.352,5.352,0,0,0-1.583-4.111,5.75,5.75,0,0,0-4.219-1.421,9.425,9.425,0,0,0-5.317,1.824v19.705h-3.923V262.9a19.319,19.319,0,0,1,6.232-3.218,19,19,0,0,1,4.729-.7,12.258,12.258,0,0,1,2.631.27,7.568,7.568,0,0,1,3.759,1.987,5.255,5.255,0,0,1,1.613,3.866Z" transform="translate(-222.518 -16.929)" fill="#646464"/>
    <path id="path1948" d="M207.723,231.874a33.766,33.766,0,0,0-5.641.482c-4.995.883-5.9,2.73-5.9,6.136v4.5h11.8v1.5H191.75a7.37,7.37,0,0,0-7.374,5.985,22.062,22.062,0,0,0,0,12c.839,3.495,2.843,5.985,6.274,5.985h4.058v-5.393a7.5,7.5,0,0,1,7.374-7.334h11.791a5.947,5.947,0,0,0,5.9-6v-11.24c0-3.2-2.7-5.6-5.9-6.136A36.864,36.864,0,0,0,207.723,231.874Zm-6.384,3.619a2.25,2.25,0,1,1-2.215,2.256A2.24,2.24,0,0,1,201.339,235.492Z" transform="translate(0 -1.754)" fill="url(#linear-gradient)"/>
    <path id="path1950" d="M237.312,260.531v5.242a7.571,7.571,0,0,1-7.374,7.485H218.146a6.022,6.022,0,0,0-5.9,6V290.5c0,3.2,2.782,5.081,5.9,6a19.748,19.748,0,0,0,11.791,0c2.972-.861,5.9-2.593,5.9-6V286H224.049v-1.5h17.693c3.431,0,4.709-2.393,5.9-5.985,1.233-3.7,1.18-7.254,0-12-.848-3.415-2.467-5.985-5.9-5.985ZM230.68,289a2.25,2.25,0,1,1-2.215,2.242A2.228,2.228,0,0,1,230.68,289Z" transform="translate(-16.064 -17.795)" fill="url(#linear-gradient-2)"/>
    <path id="text3004" d="M639.436,246.249h.688v-4.313h1.629v-.514h-3.946v.514h1.629v4.313m2.926,0h.587V242.31l1.276,3.939h.654l1.329-3.925v3.926h.641v-4.827H646l-1.452,4.135-1.238-4.135h-.949v4.827" transform="translate(-254.267 -7.099)" fill="#646464"/>
    <path id="path1894" d="M235.068,355.674c0,1.694-7.083,3.067-15.819,3.067s-15.819-1.373-15.819-3.067,7.083-3.067,15.819-3.067,15.819,1.374,15.819,3.067Z" transform="translate(-11.131 -69.333)" opacity="0.444" fill="url(#radial-gradient)" style="mix-blend-mode: normal;isolation: isolate"/>
  </g>
</svg>
