<svg id="Layer_1" data-name="Layer 1" xmlns="http://www.w3.org/2000/svg" viewBox="0 0 363.25 363.25"><defs><style>.cls-1{fill:#fff;}.cls-2{fill:#aab2bd;}.cls-3{fill:#8cc152;}.cls-4{fill:#69d6f4;}.cls-5{fill:#b4dd7f;}.cls-6{fill:#fcd770;}</style></defs><rect class="cls-1" x="115.13" y="127.05" width="133" height="109.15"/><path class="cls-2" d="M188.84,142.2v3.33h-53.3V142.2a6.66,6.66,0,0,1,6.66-6.66h40a6.66,6.66,0,0,1,6.67,6.65Z"/><path class="cls-2" d="M188.84,217.72v3.33a6.66,6.66,0,0,1-6.66,6.66h-40a6.66,6.66,0,0,1-6.66-6.66h0v-6.66h36.64l.8-.17a6.66,6.66,0,0,0,5.86,3.5Z"/><path class="cls-3" d="M224.38,179.16h-53.3a6.67,6.67,0,0,1,0-13.33h46.64a6.66,6.66,0,0,1,6.66,6.66h0Z"/><path class="cls-4" d="M188.89,151.55a16.94,16.94,0,0,0-5,11.94,16.2,16.2,0,0,0,.28,2.95l-.28.05h-5c-3.68,0-6.66,2.68-6.66,6v38.91a5.53,5.53,0,0,0,.8,2.85l-.8.15H135.54V145.53h53.3v6Z"/><path class="cls-5" d="M227.71,204.39v6.66a6.66,6.66,0,0,1-6.66,6.66h-50a6.66,6.66,0,0,1-6.66-6.66h0v-43.3a6.65,6.65,0,0,0,6.65,6.66h50a6.66,6.66,0,0,1,6.66,6.66h0v6.66H206.06a8.33,8.33,0,1,0,0,16.65Z"/><path class="cls-3" d="M227.71,190v16.65H206.06a8.33,8.33,0,1,1,0-16.65Z"/><path class="cls-6" d="M196.07,182.17H185a20,20,0,1,1,22.09,0Z"/><path d="M155.25,219.38h10v3.33h-10Z"/><path d="M226.25,178.54h0v-6.16a7.7,7.7,0,0,0-7.69-7.7h-.1c0-.51.1-1,.1-1.54a20,20,0,0,0-32.35-15.75v-5.82a7.7,7.7,0,0,0-7.7-7.69h-37a7.69,7.69,0,0,0-7.69,7.69v80.11a7.7,7.7,0,0,0,7.69,7.7h37a7.71,7.71,0,0,0,7.7-7.7v-1.54h35.44a7.72,7.72,0,0,0,7.7-7.7V184.71A7.71,7.71,0,0,0,226.25,178.54Zm-7.66-10.78a4.63,4.63,0,0,1,4.62,4.62v4.78a7.89,7.89,0,0,0-1.54-.16H213a19.91,19.91,0,0,0,5.07-9.24Zm-20-21.56a16.92,16.92,0,0,1,9.7,30.8h-8.16v-3.3a6.15,6.15,0,0,0-1.54-12.1,3.08,3.08,0,1,1,3.08-3.08h3.08a6.15,6.15,0,0,0-4.62-5.94v-3.31H197v3.3a6.15,6.15,0,0,0,1.54,12.1,3.09,3.09,0,1,1-3.08,3.09h-3.08A6.15,6.15,0,0,0,197,173.7V177h-8.15a16.92,16.92,0,0,1,9.69-30.81ZM167.92,214H137V146.2h46.21v4.16a20,20,0,0,0-4.63,12.78c0,.52.06,1,.1,1.54h-3.18a7.72,7.72,0,0,0-7.7,7.7v40.05A7.19,7.19,0,0,0,167.92,214Zm7.54-46.21h3.64a19.58,19.58,0,0,0,1,3.09h-4.65v3.08h6.16v-.19a20.21,20.21,0,0,0,2.54,3.26h-8.7a4.62,4.62,0,0,1,0-9.24ZM141.57,137h37a4.63,4.63,0,0,1,4.63,4.61v1.54H137v-1.54A4.62,4.62,0,0,1,141.57,137Zm41.6,84.72a4.64,4.64,0,0,1-4.63,4.62h-37a4.63,4.63,0,0,1-4.61-4.62v-4.63H169.3V217a7.63,7.63,0,0,0,6.16,3.13h7.7Zm38.51-4.63H175.46a4.63,4.63,0,0,1-4.62-4.62V178.54a7.64,7.64,0,0,0,4.62,1.54h46.22a4.63,4.63,0,0,1,4.62,4.62v4.63H207.81a9.24,9.24,0,1,0,0,18.48h18.48v4.62A4.62,4.62,0,0,1,221.68,217.05Zm4.62-24.64v12.32H207.81a6.16,6.16,0,0,1,0-12.32Z"/><path d="M204.54,196.86h3.33v3.33h-3.33Z"/></svg>