<svg id="Layer_1" data-name="Layer 1" xmlns="http://www.w3.org/2000/svg" xmlns:xlink="http://www.w3.org/1999/xlink" viewBox="0 0 363.25 363.25"><defs><style>.cls-1{fill:#fff;}.cls-2{fill:url(#linear-gradient);}.cls-3{fill:url(#linear-gradient-2);}.cls-4{fill:url(#linear-gradient-3);}.cls-5{fill:#f49512;}.cls-6{fill:url(#linear-gradient-4);}</style><linearGradient id="linear-gradient" x1="-2530.74" y1="427.88" x2="-2529.94" y2="428.88" gradientTransform="matrix(137.54, 0, 0, -110.92, 348214.47, 47693.53)" gradientUnits="userSpaceOnUse"><stop offset="0" stop-color="#f49512"/><stop offset="0.52" stop-color="#fcd257"/><stop offset="1" stop-color="#f49512"/></linearGradient><linearGradient id="linear-gradient-2" x1="-2452.01" y1="412.1" x2="-2447.5" y2="417.06" gradientTransform="matrix(26.84, 0, 0, -24.4, 65945.9, 10293.26)" gradientUnits="userSpaceOnUse"><stop offset="0" stop-color="#f49512"/><stop offset="0.52" stop-color="#f49512"/><stop offset="1" stop-color="#f49512"/></linearGradient><linearGradient id="linear-gradient-3" x1="-2452.23" y1="412.04" x2="-2447.72" y2="417" gradientTransform="matrix(26.84, 0, 0, -24.4, 65959.37, 10303.11)" gradientUnits="userSpaceOnUse"><stop offset="0" stop-color="#f49512"/><stop offset="0.52" stop-color="#febc61"/><stop offset="1" stop-color="#f49512"/></linearGradient><linearGradient id="linear-gradient-4" x1="-2452.9" y1="328.18" x2="-2448.4" y2="352.98" gradientTransform="matrix(26.84, 0, 0, -4.88, 65992.07, 1868)" xlink:href="#linear-gradient-3"/></defs><rect class="cls-1" x="115.13" y="127.05" width="133" height="109.15"/><path class="cls-2" d="M221.64,161.11a24.51,24.51,0,0,0-45-12.08,22.78,22.78,0,0,0-26.49,13.33,22.76,22.76,0,0,0-2.4,45.39,1.64,1.64,0,0,0,.65.13h11.12a22.76,22.76,0,0,0,44.29,0h9.37a1.88,1.88,0,0,0,.62-.11,24.51,24.51,0,0,0,7.88-46.66Zm-40,60.78a19.26,19.26,0,1,1,19.26-19.26h0A19.26,19.26,0,0,1,181.62,221.89Zm45.15-24.2A21,21,0,0,1,213,204.32a2,2,0,0,0-.34.06h-8.34c0-.58.06-1.16.06-1.75a22.76,22.76,0,0,0-45.52-.27v.27c0,.59,0,1.17.07,1.75H148.86a2,2,0,0,0-.35-.06,19.26,19.26,0,0,1,1.6-38.45l1.09,0a1.75,1.75,0,0,0,1.75-1.17,19.28,19.28,0,0,1,23.93-12,1.76,1.76,0,0,0,2-.8,21,21,0,0,1,39.25,10.34,1.73,1.73,0,0,0,1.09,1.61,21,21,0,0,1,11.6,27.36,20.79,20.79,0,0,1-4.1,6.43Z"/><path class="cls-3" d="M171.59,199.48l-.12.11a11.58,11.58,0,0,1,11.11-8.38,1.93,1.93,0,1,0,0-3.85,15.42,15.42,0,0,0-15.19,12.89l-.78-.77a1.92,1.92,0,1,0-2.72,2.72l3.85,3.85a1.93,1.93,0,0,0,2.72,0h0l3.86-3.85a1.93,1.93,0,0,0-2.73-2.72Z"/><path class="cls-4" d="M199.36,203.64a1.93,1.93,0,0,1-2.72,0l-.78-.77a15.42,15.42,0,0,1-15.19,12.89,1.93,1.93,0,1,1,0-3.85,11.57,11.57,0,0,0,11.11-8.38l-.12.12a1.93,1.93,0,0,1-2.73-2.73l3.86-3.85a1.93,1.93,0,0,1,2.72,0l3.85,3.85A1.93,1.93,0,0,1,199.36,203.64Z"/><path class="cls-5" d="M160.09,208.85H146.61a1.93,1.93,0,0,0,0,3.85h13.48a1.93,1.93,0,1,0,0-3.85Z"/><path class="cls-6" d="M220.49,208.85H203.16a1.93,1.93,0,1,0,0,3.85h17.33a1.93,1.93,0,1,0,0-3.85Z"/></svg>