<svg xmlns="http://www.w3.org/2000/svg" width="68.635" height="121.121" viewBox="0 0 68.635 121.121"><defs><style>.a{fill:none;stroke:#f49512;stroke-linecap:round;stroke-width:3px;}</style></defs><g transform="translate(-293 -1640.879)"><g transform="translate(182.067 1640.879)"><g transform="translate(133.139 6.056)"><g transform="translate(0)"><path d="M227.006,25.6H206.82a2.019,2.019,0,1,0,0,4.037h20.187a2.019,2.019,0,0,0,0-4.037Z" transform="translate(-204.801 -25.6)"/></g></g><g transform="translate(165.438 6.056)"><path d="M345.371,25.6h-2.019a2.019,2.019,0,1,0,0,4.037h2.019a2.019,2.019,0,1,0,0-4.037Z" transform="translate(-341.334 -25.6)"/></g><g transform="translate(137.176 102.953)"><g transform="translate(0)"><path d="M232.449,435.2h-5.012a5.577,5.577,0,0,0-5.569,5.569v.975a5.575,5.575,0,0,0,5.568,5.568h5.012a5.575,5.575,0,0,0,5.569-5.568v-.975A5.576,5.576,0,0,0,232.449,435.2Zm1.53,6.545a1.532,1.532,0,0,1-1.53,1.53h-5.013a1.532,1.532,0,0,1-1.532-1.53v-.975a1.533,1.533,0,0,1,1.532-1.532h5.01a1.533,1.533,0,0,1,1.532,1.532Z" transform="translate(-221.867 -435.2)"/></g></g><g transform="translate(110.933)"><g transform="translate(0)"><path d="M172.273,0H118.231a7.307,7.307,0,0,0-7.3,7.3V113.824a7.307,7.307,0,0,0,7.3,7.3h54.04a7.306,7.306,0,0,0,7.3-7.3V7.3A7.306,7.306,0,0,0,172.273,0Zm3.258,113.824a3.263,3.263,0,0,1-3.258,3.26H118.231a3.264,3.264,0,0,1-3.26-3.258V7.3a3.264,3.264,0,0,1,3.26-3.26h54.04a3.264,3.264,0,0,1,3.26,3.26V113.824Z" transform="translate(-110.933)"/></g></g><g transform="translate(110.933 12.112)"><path d="M177.55,51.2h-64.6a2.019,2.019,0,0,0-2.019,2.019V138a2.019,2.019,0,0,0,2.019,2.019h64.6A2.019,2.019,0,0,0,179.569,138V53.219A2.019,2.019,0,0,0,177.55,51.2Zm-2.019,84.785H114.971V55.237h60.561Z" transform="translate(-110.934 -51.2)"/></g></g><path class="a" d="M4490.667,1671.333h46.667" transform="translate(-4186)"/><path class="a" d="M4490.667,1671.333h46.667" transform="translate(-4186 14)"/><path class="a" d="M4490.667,1671.333h46.667" transform="translate(-4186 28)"/></g></svg>