<svg xmlns="http://www.w3.org/2000/svg" width="149.262" height="165.697" viewBox="0 0 149.262 165.697"><defs><style>.a{fill:#efefef;}.b{fill:#a4afc1;}.c{fill:#f3f3f1;}.d{fill:#febc61;}.e{fill:#00b871;}.f{fill:#d5dbe1;}</style></defs><g transform="translate(-2.335 -0.611)"><path class="a" d="M121.833,16.347C88.888,16.962,65.938.315,50.063.615S1.009,10.663,2.376,83.706,48.8,166.625,66.266,166.3c81.771-1.529,113.921-151.045,55.567-149.954Z" transform="translate(0 0)"/><g transform="translate(3.854 34.955)"><path class="b" d="M0,0H9.529V4.764H0Z" transform="translate(19.369 7.6) rotate(-45)"/><path class="b" d="M0,0H9.529V4.764H0Z" transform="translate(0 26.965) rotate(-45)"/><path class="b" d="M0,0H4.764V9.529H0Z" transform="translate(0.01 3.368) rotate(-45)"/><path class="b" d="M31.971,43.526a7.147,7.147,0,1,1,7.147-7.147A7.155,7.155,0,0,1,31.971,43.526Zm0-9.529a2.382,2.382,0,1,0,2.382,2.382A2.386,2.386,0,0,0,31.971,34Z" transform="translate(80.801 72.788)"/></g><path class="c" d="M68.2,22.96,42.359,12.393a9.02,9.02,0,0,0-7.513.262L19.1,20.54A6.076,6.076,0,1,0,24.55,31.4l13.993-7.051-7.313,7.7L42.188,43.009v8.957l10.558,2.778,6.894-1.548L68.2,47.477Z" transform="translate(50.454 41.736)"/><path class="c" d="M26.75,12.75H38.661v40.5H26.75Z" transform="translate(91.905 45.695)"/><path class="d" d="M6.75,12.75H18.661v40.5H6.75Z" transform="translate(16.618 45.695)"/><path class="e" d="M19.254,21.833a5.921,5.921,0,0,1,.643.972c.057-.062.076-.138.133-.2Z" transform="translate(63.688 79.887)"/><path class="f" d="M37.393,57.024a24.139,24.139,0,0,0-16.232-6.265H18.779V22.087L39.184,13.63a9.063,9.063,0,0,0-7.98-.643L9.25,22.087V50.759h2.382a24.163,24.163,0,0,1,16.232,6.265L38.417,66.6a6.337,6.337,0,0,0,8.89-.062l.062-.062c.071-.071.1-.172.167-.248Z" transform="translate(26.029 44.177)"/><path class="e" d="M20.394,19.21h0l4.364,4.364h0Z" transform="translate(67.96 70.013)"/><path class="f" d="M27.752,12.393a9.02,9.02,0,0,0-7.513.262l-.619.31,24.446,10V47.482L35.5,53.2l-1.749.391,4.388,1.153,6.894-1.548L53.6,47.478V22.96Z" transform="translate(65.062 41.736)"/><path d="M29.455,45.576a9.752,9.752,0,0,1-6.927-2.868l-4.669-4.669,5.055-5.055,4.669,4.669a2.769,2.769,0,0,0,3.9,0,2.905,2.905,0,0,0,.167-4.126l-13.6-13.593,5.055-5.055L36.735,28.5a10.035,10.035,0,0,1,.024,13.988A10.31,10.31,0,0,1,29.455,45.576Z" transform="translate(58.436 53.709)"/><path d="M0,0H9.924V7.142H0Z" transform="translate(33.92 62.981) rotate(-22.514)"/><path d="M29.309,22.973,26.7,20.367a5.485,5.485,0,0,0-5.965-1.229l-5.617,2.325-2.735-6.6,5.646-2.339a12.643,12.643,0,0,1,13.726,2.787l2.6,2.606Z" transform="translate(37.834 41.332)"/><path d="M24.639,38.451a9.645,9.645,0,0,1-6.823-2.835,9.651,9.651,0,0,1,2.5-15.451L36.069,12.28a12.613,12.613,0,0,1,10.491-.362L72.378,22.481,69.672,29.1,43.83,18.527a5.473,5.473,0,0,0-4.564.148L23.519,26.559a2.5,2.5,0,0,0-.653,4.007,2.508,2.508,0,0,0,2.9.467l14-7.046,3.216,6.384L28.984,37.417a9.709,9.709,0,0,1-4.345,1.034Z" transform="translate(47.626 38.913)"/><path d="M28.554,40.252a9.858,9.858,0,0,1-7-2.9l-5.813-5.813,5.055-5.055L26.606,32.3a2.817,2.817,0,0,0,3.9,0,2.749,2.749,0,0,0,0-3.9l-4.664-4.664,5.055-5.055,4.669,4.664a9.905,9.905,0,0,1-7.008,16.909h0Z" transform="translate(50.452 68.014)"/><path d="M42.8,44.414a9.814,9.814,0,0,1-6.88-2.782L25.464,32.145A20.555,20.555,0,0,0,11.633,26.8H9.251V19.658h2.382a27.685,27.685,0,0,1,18.633,7.194l10.548,9.576a2.823,2.823,0,0,0,4.836-1.953,2.743,2.743,0,0,0-.805-1.949l-4.669-4.669L45.231,22.8,49.9,27.472a9.9,9.9,0,0,1,0,14.007,10.05,10.05,0,0,1-7.1,2.935Z" transform="translate(26.033 71.699)"/><path d="M33.783,34.314a12.428,12.428,0,0,1-4.021-.672l-8.514-2.911,2.311-6.765,8.514,2.911a5.448,5.448,0,0,0,5.36-1.053l7.447-7.752,5.146,4.96-7.671,7.961a12.918,12.918,0,0,1-8.571,3.321Z" transform="translate(71.194 65.729)"/><path d="M41.484,59.644H29.573A3.575,3.575,0,0,1,26,56.07v-40.5A3.575,3.575,0,0,1,29.573,12H41.484a3.575,3.575,0,0,1,3.573,3.573v40.5A3.575,3.575,0,0,1,41.484,59.644ZM33.147,52.5h4.764V19.147H33.147Z" transform="translate(89.082 42.872)"/><path d="M21.484,59.644H9.573A3.575,3.575,0,0,1,6,56.07v-40.5A3.575,3.575,0,0,1,9.573,12H21.484a3.575,3.575,0,0,1,3.573,3.573v40.5A3.575,3.575,0,0,1,21.484,59.644ZM13.147,52.5h4.764V19.147H13.147Z" transform="translate(13.795 42.872)"/></g></svg>