<svg xmlns="http://www.w3.org/2000/svg" width="120.625" height="120.622" viewBox="0 0 120.625 120.622"><defs><style>.a{fill:#f49512;}</style></defs><g transform="translate(-4.746 -4.75)"><path class="a" d="M24.223,16.947H76.464a1.781,1.781,0,0,0,0-3.563H24.223a1.781,1.781,0,0,0,0,3.563Z" transform="translate(0.317 0.155)"/><path d="M45.415,96.075a17.136,17.136,0,1,0-28.831,0A21.31,21.31,0,0,0,4.746,115.11v7.319a1.781,1.781,0,0,0,1.781,1.781H55.472a1.781,1.781,0,0,0,1.781-1.781V115.11A21.321,21.321,0,0,0,45.415,96.075ZM31,73.274A13.574,13.574,0,1,1,17.43,86.846,13.574,13.574,0,0,1,31,73.274Zm22.691,47.372H8.313v-5.537A17.737,17.737,0,0,1,18.868,98.932a17.1,17.1,0,0,0,24.271,0,17.749,17.749,0,0,1,10.552,16.177Z" transform="translate(0 1.162)"/><path d="M112.335,96.075a17.135,17.135,0,1,0-28.831,0A21.321,21.321,0,0,0,71.67,115.11v7.319a1.781,1.781,0,0,0,1.781,1.781h48.941a1.781,1.781,0,0,0,1.781-1.781V115.11a21.31,21.31,0,0,0-11.838-19.035ZM97.92,73.274A13.574,13.574,0,1,1,84.347,86.847,13.574,13.574,0,0,1,97.92,73.274Zm22.691,47.372H75.233v-5.537A17.749,17.749,0,0,1,85.784,98.93a17.1,17.1,0,0,0,24.271,0,17.737,17.737,0,0,1,10.556,16.177Z" transform="translate(1.198 1.162)"/><path d="M112.761,106.09a1.781,1.781,0,0,0-.611,2.443,11.552,11.552,0,0,1,1.636,5.929,1.781,1.781,0,0,0,3.563,0,15.114,15.114,0,0,0-2.138-7.758,1.783,1.783,0,0,0-2.45-.614Z" transform="translate(1.918 1.809)"/><path class="a" d="M106.262,68.03a7.9,7.9,0,0,0,7.889-7.889V28.416a7.9,7.9,0,0,0-7.889-7.889H85.347V12.639A7.9,7.9,0,0,0,77.458,4.75H23.469a7.9,7.9,0,0,0-7.889,7.889V44.367a7.9,7.9,0,0,0,7.889,7.889H44.383v7.886a7.9,7.9,0,0,0,7.889,7.889h7v7.21a1.781,1.781,0,0,0,2.714,1.518l14.2-8.727ZM23.469,48.69a4.331,4.331,0,0,1-4.326-4.326V12.639a4.331,4.331,0,0,1,4.326-4.326H77.458a4.331,4.331,0,0,1,4.326,4.326v7.889H52.271a7.851,7.851,0,0,0-5.007,1.8H24.346a1.781,1.781,0,0,0,0,3.563h20.46a7.838,7.838,0,0,0-.423,2.527v2.7H24.346a1.781,1.781,0,0,0,0,3.563H44.383V39.9H24.346a1.781,1.781,0,0,0,0,3.563H44.383v5.229ZM74.751,64.731l-11.92,7.324v-5.8a1.781,1.781,0,0,0-1.781-1.781H52.271a4.331,4.331,0,0,1-4.326-4.326V28.416a4.331,4.331,0,0,1,4.326-4.326h53.99a4.331,4.331,0,0,1,4.326,4.326V60.141a4.331,4.331,0,0,1-4.326,4.326H75.683a1.783,1.783,0,0,0-.932.264Z" transform="translate(0.194)"/></g></svg>