<svg xmlns="http://www.w3.org/2000/svg" width="135.123" height="133.077" viewBox="0 0 135.123 133.077"><defs><style>.a{fill:#f49512;}</style></defs><g transform="translate(-0.001 -0.5)"><path d="M131.932,227.2a12.239,12.239,0,0,0-7.549-3.163,10.807,10.807,0,0,0-8.3,3.161l-15.025,14.867a9.973,9.973,0,0,0-1.016-1.45,9.74,9.74,0,0,0-7.61-3.4H71.4a43.138,43.138,0,0,1-11.5-1.528A28.293,28.293,0,0,0,33.5,241.269a38.387,38.387,0,0,0-6.873,7.377l-3.771-3.66a2.681,2.681,0,0,0-1.86-.755h-.018a2.686,2.686,0,0,0-1.906.819L.744,264.082a2.66,2.66,0,0,0,.081,3.769l31.007,29.524a2.657,2.657,0,0,0,3.737-.069l18.162-18.633a2.673,2.673,0,0,0-.053-3.782L52.1,273.357l3.62-.407a57.525,57.525,0,0,1,6.621-.384h32a24.025,24.025,0,0,0,13.128-3.38l.087-.058a17.715,17.715,0,0,0,3.391-3.078l21.565-25.37c3.691-4.341,3.46-9.759-.575-13.479ZM33.6,291.714,6.428,265.845,21.063,250.65l27.01,26.211Zm94.86-54.477-21.565,25.371a12.426,12.426,0,0,1-2.334,2.127,18.9,18.9,0,0,1-10.22,2.516h-32a62.765,62.765,0,0,0-7.224.419l-7.957.893L30.5,252.4a33.153,33.153,0,0,1,6.37-7.008,22.881,22.881,0,0,1,21.613-4.579A48.448,48.448,0,0,0,71.4,242.529H92.428c3.777,0,4.785,3.272,4.785,5.205a5.757,5.757,0,0,1-1.244,3.689,4.517,4.517,0,0,1-3.625,1.521H74.036a2.658,2.658,0,0,0,0,5.316H92.345a9.857,9.857,0,0,0,7.676-3.4,10.917,10.917,0,0,0,2.5-6.773l17.3-17.122c2.473-2.473,6.337-1.853,8.5.141,1.118,1.031,2.621,3.2.129,6.128Zm0,0" transform="translate(0 -164.532)"/><path d="M234.484,335.273a2.658,2.658,0,1,0-5.175,1.213l.025.108a2.66,2.66,0,0,0,2.586,2.052,2.69,2.69,0,0,0,.609-.07,2.658,2.658,0,0,0,1.981-3.195Zm0,0" transform="translate(-168.738 -244.912)"/><path class="a" d="M50.127,56.581h25.9A6.4,6.4,0,0,0,79.8,55.351a6.4,6.4,0,0,0,3.777,1.231h25.9a6.4,6.4,0,0,0,3.777-1.231,6.4,6.4,0,0,0,3.777,1.231h25.9a6.443,6.443,0,0,0,6.435-6.436V38.067a13.937,13.937,0,0,0-7.58-12.462,15.333,15.333,0,1,0-23.61,0,13.924,13.924,0,0,0-4.923,4.221,13.9,13.9,0,0,0-4.924-4.221,15.333,15.333,0,1,0-23.609,0A13.9,13.9,0,0,0,79.8,29.827a13.911,13.911,0,0,0-4.924-4.222,15.332,15.332,0,1,0-23.609,0,13.939,13.939,0,0,0-7.581,12.462V50.146a6.444,6.444,0,0,0,6.436,6.436ZM129.99,5.816a10.016,10.016,0,1,1-10.016,10.016A10.028,10.028,0,0,1,129.99,5.816Zm-6.906,23.7a15.278,15.278,0,0,0,13.81,0,8.637,8.637,0,0,1,7.165,8.551V50.146a1.121,1.121,0,0,1-1.12,1.12h-25.9a1.12,1.12,0,0,1-1.119-1.12V38.067a8.637,8.637,0,0,1,7.164-8.551Zm-26.55-23.7A10.016,10.016,0,1,1,86.517,15.833,10.028,10.028,0,0,1,96.533,5.816Zm-6.905,23.7a15.278,15.278,0,0,0,13.81,0,8.638,8.638,0,0,1,7.165,8.551V50.146a1.121,1.121,0,0,1-1.12,1.12h-25.9a1.121,1.121,0,0,1-1.12-1.12V38.067a8.638,8.638,0,0,1,7.165-8.551ZM63.077,5.816A10.016,10.016,0,1,1,53.061,15.833,10.028,10.028,0,0,1,63.077,5.816ZM49.007,38.067a8.638,8.638,0,0,1,7.165-8.551,15.278,15.278,0,0,0,13.81,0,8.637,8.637,0,0,1,7.165,8.551V50.146a1.121,1.121,0,0,1-1.12,1.12h-25.9a1.121,1.121,0,0,1-1.12-1.12Zm0,0" transform="translate(-32.16)"/></g></svg>