<svg xmlns="http://www.w3.org/2000/svg" width="122.218" height="122.5" viewBox="0 0 122.218 122.5"><defs><style>.a{fill:#febc61;}</style></defs><g transform="translate(-0.572)"><g transform="translate(8.336)"><path class="a" d="M347.283,37.54a1.976,1.976,0,0,1-1.948-2.31l1.3-7.569h-5.277a5.935,5.935,0,0,1-5.927-5.927V5.927A5.935,5.935,0,0,1,341.355,0h27.661a5.935,5.935,0,0,1,5.927,5.927V21.734a5.935,5.935,0,0,1-5.927,5.927h-5.36L348.33,37.24A1.979,1.979,0,0,1,347.283,37.54Z" transform="translate(-260.491)"/><rect class="a" width="7.226" height="16.764" transform="translate(16.963 78.014) rotate(135)"/><path class="a" d="M172.15,412.945l5.686-5.21L165.982,395.88l-5.722,5.175Z" transform="translate(-128.585 -298.107)"/></g><path d="M95.276,153.212a13.831,13.831,0,0,0-10.648-9.233l-13.2-2.4v-1.023a19.885,19.885,0,0,0,5.89-5.23H81.3a5.935,5.935,0,0,0,5.927-5.927v-23.71a25.685,25.685,0,1,0-51.371,0v13.831a7.916,7.916,0,0,0,6.3,7.739,19.8,19.8,0,0,0,9.506,13.3v1.023l-13.206,2.4a13.828,13.828,0,0,0-10.646,9.233l-.79,2.373-6.73-6.73a1.98,1.98,0,0,1,0-2.8l7.8-7.8L13.45,123.608l-8.82,8.82a13.831,13.831,0,0,0,0,19.559l26.7,26.7a13.824,13.824,0,0,0,19.5.059l9.624-8.818-3-3h42.4Zm-33.731-4.876-5.927-5.927v-.093a19.742,19.742,0,0,0,11.855,0v.093ZM81.3,131.371H79.642a19.624,19.624,0,0,0,1.288-4.116,7.827,7.827,0,0,0,2.349-.935V129.4A1.978,1.978,0,0,1,81.3,131.371Zm0-15.257a3.917,3.917,0,0,1,0,6.8Zm-41.492,3.4a3.939,3.939,0,0,1,1.976-3.4v6.8A3.939,3.939,0,0,1,39.812,119.516Zm1.976-9.879v2.256a7.837,7.837,0,0,0-1.976.818v-7.026a21.734,21.734,0,1,1,43.468,0v7.026a7.765,7.765,0,0,0-1.976-.818v-2.256H79.328a21.739,21.739,0,0,1-15.469-6.408l-2.314-2.314-2.314,2.314a21.739,21.739,0,0,1-15.469,6.408Zm3.952,13.831v-9.954a25.616,25.616,0,0,0,15.806-7.022,25.605,25.605,0,0,0,15.806,7.022v9.954a15.687,15.687,0,0,1-2.138,7.9H61.545v3.952h10.42a15.781,15.781,0,0,1-26.227-11.855Zm-23.23,14.789L20.364,140.4,11.3,131.341l2.146-2.146Zm18.6,40.534a9.825,9.825,0,0,1-6.986-2.895l-26.7-26.7a9.881,9.881,0,0,1,0-13.971l1.087-1.087,9.061,9.061-.071.071a5.938,5.938,0,0,0,0,8.383l14.169,14.169a5.9,5.9,0,0,0,4.193,1.737,5.818,5.818,0,0,0,4.12-1.668l.148-.132,9.1,9.1L48.094,175.9A9.829,9.829,0,0,1,41.11,178.79Zm11.035-6.605L43.062,163.1l2.61-2.359,9.067,9.067Zm1.357-9.2-7.7-7.7-8.551,7.735a2.018,2.018,0,0,1-2.794,0l-4.315-4.315,1.415-4.248a9.882,9.882,0,0,1,7.6-6.6l13.811-2.509,8.569,8.569,8.567-8.567,13.809,2.509a9.879,9.879,0,0,1,7.6,6.6l2.843,8.522Z" transform="translate(-0.006 -60.242)"/><rect width="23.71" height="3.952" transform="translate(91.177 7.903)"/><rect width="15.806" height="3.952" transform="translate(91.177 15.806)"/><rect width="3.952" height="3.952" transform="translate(110.935 15.806)"/><path d="M19.089,67.185,17.056,63.8,11.7,67.009A51.385,51.385,0,0,1,76.761,30.244l1.17-3.774A55.325,55.325,0,0,0,7.7,66.766L3.961,60.525.572,62.558,7.517,74.13Z" transform="translate(0 -18.073)"/><path d="M429.414,155.969l-11.572-6.945L410.9,160.6l3.389,2.033,3.458-5.763a51.415,51.415,0,0,1-8.707,48.947l3.068,2.49a55.33,55.33,0,0,0,9.468-52.43l5.807,3.483Z" transform="translate(-307.583 -112.219)"/></g></svg>