<svg xmlns="http://www.w3.org/2000/svg" width="132.991" height="136.846" viewBox="0 0 132.991 136.846">
  <g id="dotted_small_rec" data-name="dotted small rec" transform="translate(-1733 -1285)" opacity="0.1">
    <g id="Group_9422" data-name="Group 9422" transform="translate(1733 1285)">
      <circle id="Ellipse_2358" data-name="Ellipse 2358" cx="4.337" cy="4.337" r="4.337" fill="#f49512"/>
      <circle id="Ellipse_2359" data-name="Ellipse 2359" cx="4.337" cy="4.337" r="4.337" transform="translate(17.347)" fill="#f49512"/>
    </g>
    <g id="Group_9423" data-name="Group 9423" transform="translate(1768.657 1285)">
      <circle id="Ellipse_2358-2" data-name="Ellipse 2358" cx="4.337" cy="4.337" r="4.337" transform="translate(0)" fill="#f49512"/>
      <circle id="Ellipse_2359-2" data-name="Ellipse 2359" cx="4.337" cy="4.337" r="4.337" transform="translate(17.347)" fill="#f49512"/>
    </g>
    <g id="Group_9424" data-name="Group 9424" transform="translate(1804.314 1285)">
      <circle id="Ellipse_2358-3" data-name="Ellipse 2358" cx="4.337" cy="4.337" r="4.337" transform="translate(0)" fill="#f49512"/>
      <circle id="Ellipse_2359-3" data-name="Ellipse 2359" cx="4.337" cy="4.337" r="4.337" transform="translate(17.347)" fill="#f49512"/>
    </g>
    <g id="Group_9426" data-name="Group 9426" transform="translate(1733 1303.31)">
      <circle id="Ellipse_2358-4" data-name="Ellipse 2358" cx="4.337" cy="4.337" r="4.337" fill="#f49512"/>
      <circle id="Ellipse_2359-4" data-name="Ellipse 2359" cx="4.337" cy="4.337" r="4.337" transform="translate(17.347)" fill="#f49512"/>
    </g>
    <g id="Group_9427" data-name="Group 9427" transform="translate(1768.657 1303.31)">
      <circle id="Ellipse_2358-5" data-name="Ellipse 2358" cx="4.337" cy="4.337" r="4.337" transform="translate(0)" fill="#f49512"/>
      <circle id="Ellipse_2359-5" data-name="Ellipse 2359" cx="4.337" cy="4.337" r="4.337" transform="translate(17.347)" fill="#f49512"/>
    </g>
    <g id="Group_9428" data-name="Group 9428" transform="translate(1804.314 1303.31)">
      <circle id="Ellipse_2358-6" data-name="Ellipse 2358" cx="4.337" cy="4.337" r="4.337" transform="translate(0)" fill="#f49512"/>
      <circle id="Ellipse_2359-6" data-name="Ellipse 2359" cx="4.337" cy="4.337" r="4.337" transform="translate(17.347)" fill="#f49512"/>
    </g>
    <g id="Group_9430" data-name="Group 9430" transform="translate(1733 1321.621)">
      <circle id="Ellipse_2358-7" data-name="Ellipse 2358" cx="4.337" cy="4.337" r="4.337" fill="#f49512"/>
      <circle id="Ellipse_2359-7" data-name="Ellipse 2359" cx="4.337" cy="4.337" r="4.337" transform="translate(17.347)" fill="#f49512"/>
    </g>
    <g id="Group_9431" data-name="Group 9431" transform="translate(1768.657 1321.621)">
      <circle id="Ellipse_2358-8" data-name="Ellipse 2358" cx="4.337" cy="4.337" r="4.337" transform="translate(0)" fill="#f49512"/>
      <circle id="Ellipse_2359-8" data-name="Ellipse 2359" cx="4.337" cy="4.337" r="4.337" transform="translate(17.347)" fill="#f49512"/>
    </g>
    <g id="Group_9432" data-name="Group 9432" transform="translate(1804.314 1321.621)">
      <circle id="Ellipse_2358-9" data-name="Ellipse 2358" cx="4.337" cy="4.337" r="4.337" transform="translate(0)" fill="#f49512"/>
      <circle id="Ellipse_2359-9" data-name="Ellipse 2359" cx="4.337" cy="4.337" r="4.337" transform="translate(17.347)" fill="#f49512"/>
    </g>
    <g id="Group_9434" data-name="Group 9434" transform="translate(1733 1339.931)">
      <circle id="Ellipse_2358-10" data-name="Ellipse 2358" cx="4.337" cy="4.337" r="4.337" fill="#f49512"/>
      <circle id="Ellipse_2359-10" data-name="Ellipse 2359" cx="4.337" cy="4.337" r="4.337" transform="translate(17.347)" fill="#f49512"/>
    </g>
    <g id="Group_9435" data-name="Group 9435" transform="translate(1768.657 1339.931)">
      <circle id="Ellipse_2358-11" data-name="Ellipse 2358" cx="4.337" cy="4.337" r="4.337" transform="translate(0)" fill="#f49512"/>
      <circle id="Ellipse_2359-11" data-name="Ellipse 2359" cx="4.337" cy="4.337" r="4.337" transform="translate(17.347)" fill="#f49512"/>
    </g>
    <g id="Group_9436" data-name="Group 9436" transform="translate(1804.314 1339.931)">
      <circle id="Ellipse_2358-12" data-name="Ellipse 2358" cx="4.337" cy="4.337" r="4.337" transform="translate(0)" fill="#f49512"/>
      <circle id="Ellipse_2359-12" data-name="Ellipse 2359" cx="4.337" cy="4.337" r="4.337" transform="translate(17.347)" fill="#f49512"/>
    </g>
    <g id="Group_9438" data-name="Group 9438" transform="translate(1733 1358.242)">
      <circle id="Ellipse_2358-13" data-name="Ellipse 2358" cx="4.337" cy="4.337" r="4.337" transform="translate(0 0)" fill="#f49512"/>
      <circle id="Ellipse_2359-13" data-name="Ellipse 2359" cx="4.337" cy="4.337" r="4.337" transform="translate(17.347 0)" fill="#f49512"/>
    </g>
    <g id="Group_9439" data-name="Group 9439" transform="translate(1768.657 1358.242)">
      <circle id="Ellipse_2358-14" data-name="Ellipse 2358" cx="4.337" cy="4.337" r="4.337" transform="translate(0 0)" fill="#f49512"/>
      <circle id="Ellipse_2359-14" data-name="Ellipse 2359" cx="4.337" cy="4.337" r="4.337" transform="translate(17.347 0)" fill="#f49512"/>
    </g>
    <g id="Group_9440" data-name="Group 9440" transform="translate(1804.314 1358.242)">
      <circle id="Ellipse_2358-15" data-name="Ellipse 2358" cx="4.337" cy="4.337" r="4.337" transform="translate(0 0)" fill="#f49512"/>
      <circle id="Ellipse_2359-15" data-name="Ellipse 2359" cx="4.337" cy="4.337" r="4.337" transform="translate(17.347 0)" fill="#f49512"/>
    </g>
    <g id="Group_9442" data-name="Group 9442" transform="translate(1733 1376.552)">
      <circle id="Ellipse_2358-16" data-name="Ellipse 2358" cx="4.337" cy="4.337" r="4.337" transform="translate(0 0)" fill="#f49512"/>
      <circle id="Ellipse_2359-16" data-name="Ellipse 2359" cx="4.337" cy="4.337" r="4.337" transform="translate(17.347 0)" fill="#f49512"/>
    </g>
    <g id="Group_9443" data-name="Group 9443" transform="translate(1768.657 1376.552)">
      <circle id="Ellipse_2358-17" data-name="Ellipse 2358" cx="4.337" cy="4.337" r="4.337" transform="translate(0 0)" fill="#f49512"/>
      <circle id="Ellipse_2359-17" data-name="Ellipse 2359" cx="4.337" cy="4.337" r="4.337" transform="translate(17.347 0)" fill="#f49512"/>
    </g>
    <g id="Group_9444" data-name="Group 9444" transform="translate(1804.314 1376.552)">
      <circle id="Ellipse_2358-18" data-name="Ellipse 2358" cx="4.337" cy="4.337" r="4.337" transform="translate(0 0)" fill="#f49512"/>
      <circle id="Ellipse_2359-18" data-name="Ellipse 2359" cx="4.337" cy="4.337" r="4.337" transform="translate(17.347 0)" fill="#f49512"/>
    </g>
    <g id="Group_9446" data-name="Group 9446" transform="translate(1733 1394.862)">
      <circle id="Ellipse_2358-19" data-name="Ellipse 2358" cx="4.337" cy="4.337" r="4.337" transform="translate(0 0)" fill="#f49512"/>
      <circle id="Ellipse_2359-19" data-name="Ellipse 2359" cx="4.337" cy="4.337" r="4.337" transform="translate(17.347 0)" fill="#f49512"/>
    </g>
    <g id="Group_9447" data-name="Group 9447" transform="translate(1768.657 1394.862)">
      <circle id="Ellipse_2358-20" data-name="Ellipse 2358" cx="4.337" cy="4.337" r="4.337" transform="translate(0 0)" fill="#f49512"/>
      <circle id="Ellipse_2359-20" data-name="Ellipse 2359" cx="4.337" cy="4.337" r="4.337" transform="translate(17.347 0)" fill="#f49512"/>
    </g>
    <g id="Group_9448" data-name="Group 9448" transform="translate(1804.314 1394.862)">
      <circle id="Ellipse_2358-21" data-name="Ellipse 2358" cx="4.337" cy="4.337" r="4.337" transform="translate(0 0)" fill="#f49512"/>
      <circle id="Ellipse_2359-21" data-name="Ellipse 2359" cx="4.337" cy="4.337" r="4.337" transform="translate(17.347 0)" fill="#f49512"/>
    </g>
    <g id="Group_9450" data-name="Group 9450" transform="translate(1733 1413.173)">
      <circle id="Ellipse_2358-22" data-name="Ellipse 2358" cx="4.337" cy="4.337" r="4.337" transform="translate(0 0)" fill="#f49512"/>
      <circle id="Ellipse_2359-22" data-name="Ellipse 2359" cx="4.337" cy="4.337" r="4.337" transform="translate(17.347 0)" fill="#f49512"/>
    </g>
    <g id="Group_9451" data-name="Group 9451" transform="translate(1768.657 1413.173)">
      <circle id="Ellipse_2358-23" data-name="Ellipse 2358" cx="4.337" cy="4.337" r="4.337" transform="translate(0 0)" fill="#f49512"/>
      <circle id="Ellipse_2359-23" data-name="Ellipse 2359" cx="4.337" cy="4.337" r="4.337" transform="translate(17.347 0)" fill="#f49512"/>
    </g>
    <g id="Group_9452" data-name="Group 9452" transform="translate(1804.314 1413.173)">
      <circle id="Ellipse_2358-24" data-name="Ellipse 2358" cx="4.337" cy="4.337" r="4.337" transform="translate(0 0)" fill="#f49512"/>
      <circle id="Ellipse_2359-24" data-name="Ellipse 2359" cx="4.337" cy="4.337" r="4.337" transform="translate(17.347 0)" fill="#f49512"/>
    </g>
    <g id="Group_9425" data-name="Group 9425" transform="translate(1839.971 1285)">
      <circle id="Ellipse_2358-25" data-name="Ellipse 2358" cx="4.337" cy="4.337" r="4.337" fill="#f49512"/>
      <circle id="Ellipse_2359-25" data-name="Ellipse 2359" cx="4.337" cy="4.337" r="4.337" transform="translate(17.347)" fill="#f49512"/>
    </g>
    <g id="Group_9429" data-name="Group 9429" transform="translate(1839.971 1303.31)">
      <circle id="Ellipse_2358-26" data-name="Ellipse 2358" cx="4.337" cy="4.337" r="4.337" fill="#f49512"/>
      <circle id="Ellipse_2359-26" data-name="Ellipse 2359" cx="4.337" cy="4.337" r="4.337" transform="translate(17.347)" fill="#f49512"/>
    </g>
    <g id="Group_9433" data-name="Group 9433" transform="translate(1839.971 1321.621)">
      <circle id="Ellipse_2358-27" data-name="Ellipse 2358" cx="4.337" cy="4.337" r="4.337" fill="#f49512"/>
      <circle id="Ellipse_2359-27" data-name="Ellipse 2359" cx="4.337" cy="4.337" r="4.337" transform="translate(17.347)" fill="#f49512"/>
    </g>
    <g id="Group_9437" data-name="Group 9437" transform="translate(1839.971 1339.931)">
      <circle id="Ellipse_2358-28" data-name="Ellipse 2358" cx="4.337" cy="4.337" r="4.337" fill="#f49512"/>
      <circle id="Ellipse_2359-28" data-name="Ellipse 2359" cx="4.337" cy="4.337" r="4.337" transform="translate(17.347)" fill="#f49512"/>
    </g>
    <g id="Group_9441" data-name="Group 9441" transform="translate(1839.971 1358.242)">
      <circle id="Ellipse_2358-29" data-name="Ellipse 2358" cx="4.337" cy="4.337" r="4.337" transform="translate(0 0)" fill="#f49512"/>
      <circle id="Ellipse_2359-29" data-name="Ellipse 2359" cx="4.337" cy="4.337" r="4.337" transform="translate(17.347 0)" fill="#f49512"/>
    </g>
    <g id="Group_9445" data-name="Group 9445" transform="translate(1839.971 1376.552)">
      <circle id="Ellipse_2358-30" data-name="Ellipse 2358" cx="4.337" cy="4.337" r="4.337" transform="translate(0 0)" fill="#f49512"/>
      <circle id="Ellipse_2359-30" data-name="Ellipse 2359" cx="4.337" cy="4.337" r="4.337" transform="translate(17.347 0)" fill="#f49512"/>
    </g>
    <g id="Group_9449" data-name="Group 9449" transform="translate(1839.971 1394.862)">
      <circle id="Ellipse_2358-31" data-name="Ellipse 2358" cx="4.337" cy="4.337" r="4.337" transform="translate(0 0)" fill="#f49512"/>
      <circle id="Ellipse_2359-31" data-name="Ellipse 2359" cx="4.337" cy="4.337" r="4.337" transform="translate(17.347 0)" fill="#f49512"/>
    </g>
    <g id="Group_9453" data-name="Group 9453" transform="translate(1839.971 1413.173)">
      <circle id="Ellipse_2358-32" data-name="Ellipse 2358" cx="4.337" cy="4.337" r="4.337" transform="translate(0 0)" fill="#f49512"/>
      <circle id="Ellipse_2359-32" data-name="Ellipse 2359" cx="4.337" cy="4.337" r="4.337" transform="translate(17.347 0)" fill="#f49512"/>
    </g>
  </g>
</svg>
