<svg xmlns="http://www.w3.org/2000/svg" width="132.991" height="136.846" viewBox="0 0 132.991 136.846"><defs><style>.a{opacity:0.1;}.b{fill:#f49512;}</style></defs><g class="a" transform="translate(-1733 -1285)"><g transform="translate(1733 1285)"><circle class="b" cx="4.337" cy="4.337" r="4.337"/><circle class="b" cx="4.337" cy="4.337" r="4.337" transform="translate(17.347)"/></g><g transform="translate(1768.657 1285)"><circle class="b" cx="4.337" cy="4.337" r="4.337" transform="translate(0)"/><circle class="b" cx="4.337" cy="4.337" r="4.337" transform="translate(17.347)"/></g><g transform="translate(1804.314 1285)"><circle class="b" cx="4.337" cy="4.337" r="4.337" transform="translate(0)"/><circle class="b" cx="4.337" cy="4.337" r="4.337" transform="translate(17.347)"/></g><g transform="translate(1733 1303.31)"><circle class="b" cx="4.337" cy="4.337" r="4.337"/><circle class="b" cx="4.337" cy="4.337" r="4.337" transform="translate(17.347)"/></g><g transform="translate(1768.657 1303.31)"><circle class="b" cx="4.337" cy="4.337" r="4.337" transform="translate(0)"/><circle class="b" cx="4.337" cy="4.337" r="4.337" transform="translate(17.347)"/></g><g transform="translate(1804.314 1303.31)"><circle class="b" cx="4.337" cy="4.337" r="4.337" transform="translate(0)"/><circle class="b" cx="4.337" cy="4.337" r="4.337" transform="translate(17.347)"/></g><g transform="translate(1733 1321.621)"><circle class="b" cx="4.337" cy="4.337" r="4.337"/><circle class="b" cx="4.337" cy="4.337" r="4.337" transform="translate(17.347)"/></g><g transform="translate(1768.657 1321.621)"><circle class="b" cx="4.337" cy="4.337" r="4.337" transform="translate(0)"/><circle class="b" cx="4.337" cy="4.337" r="4.337" transform="translate(17.347)"/></g><g transform="translate(1804.314 1321.621)"><circle class="b" cx="4.337" cy="4.337" r="4.337" transform="translate(0)"/><circle class="b" cx="4.337" cy="4.337" r="4.337" transform="translate(17.347)"/></g><g transform="translate(1733 1339.931)"><circle class="b" cx="4.337" cy="4.337" r="4.337"/><circle class="b" cx="4.337" cy="4.337" r="4.337" transform="translate(17.347)"/></g><g transform="translate(1768.657 1339.931)"><circle class="b" cx="4.337" cy="4.337" r="4.337" transform="translate(0)"/><circle class="b" cx="4.337" cy="4.337" r="4.337" transform="translate(17.347)"/></g><g transform="translate(1804.314 1339.931)"><circle class="b" cx="4.337" cy="4.337" r="4.337" transform="translate(0)"/><circle class="b" cx="4.337" cy="4.337" r="4.337" transform="translate(17.347)"/></g><g transform="translate(1733 1358.242)"><circle class="b" cx="4.337" cy="4.337" r="4.337" transform="translate(0 0)"/><circle class="b" cx="4.337" cy="4.337" r="4.337" transform="translate(17.347 0)"/></g><g transform="translate(1768.657 1358.242)"><circle class="b" cx="4.337" cy="4.337" r="4.337" transform="translate(0 0)"/><circle class="b" cx="4.337" cy="4.337" r="4.337" transform="translate(17.347 0)"/></g><g transform="translate(1804.314 1358.242)"><circle class="b" cx="4.337" cy="4.337" r="4.337" transform="translate(0 0)"/><circle class="b" cx="4.337" cy="4.337" r="4.337" transform="translate(17.347 0)"/></g><g transform="translate(1733 1376.552)"><circle class="b" cx="4.337" cy="4.337" r="4.337" transform="translate(0 0)"/><circle class="b" cx="4.337" cy="4.337" r="4.337" transform="translate(17.347 0)"/></g><g transform="translate(1768.657 1376.552)"><circle class="b" cx="4.337" cy="4.337" r="4.337" transform="translate(0 0)"/><circle class="b" cx="4.337" cy="4.337" r="4.337" transform="translate(17.347 0)"/></g><g transform="translate(1804.314 1376.552)"><circle class="b" cx="4.337" cy="4.337" r="4.337" transform="translate(0 0)"/><circle class="b" cx="4.337" cy="4.337" r="4.337" transform="translate(17.347 0)"/></g><g transform="translate(1733 1394.862)"><circle class="b" cx="4.337" cy="4.337" r="4.337" transform="translate(0 0)"/><circle class="b" cx="4.337" cy="4.337" r="4.337" transform="translate(17.347 0)"/></g><g transform="translate(1768.657 1394.862)"><circle class="b" cx="4.337" cy="4.337" r="4.337" transform="translate(0 0)"/><circle class="b" cx="4.337" cy="4.337" r="4.337" transform="translate(17.347 0)"/></g><g transform="translate(1804.314 1394.862)"><circle class="b" cx="4.337" cy="4.337" r="4.337" transform="translate(0 0)"/><circle class="b" cx="4.337" cy="4.337" r="4.337" transform="translate(17.347 0)"/></g><g transform="translate(1733 1413.173)"><circle class="b" cx="4.337" cy="4.337" r="4.337" transform="translate(0 0)"/><circle class="b" cx="4.337" cy="4.337" r="4.337" transform="translate(17.347 0)"/></g><g transform="translate(1768.657 1413.173)"><circle class="b" cx="4.337" cy="4.337" r="4.337" transform="translate(0 0)"/><circle class="b" cx="4.337" cy="4.337" r="4.337" transform="translate(17.347 0)"/></g><g transform="translate(1804.314 1413.173)"><circle class="b" cx="4.337" cy="4.337" r="4.337" transform="translate(0 0)"/><circle class="b" cx="4.337" cy="4.337" r="4.337" transform="translate(17.347 0)"/></g><g transform="translate(1839.971 1285)"><circle class="b" cx="4.337" cy="4.337" r="4.337"/><circle class="b" cx="4.337" cy="4.337" r="4.337" transform="translate(17.347)"/></g><g transform="translate(1839.971 1303.31)"><circle class="b" cx="4.337" cy="4.337" r="4.337"/><circle class="b" cx="4.337" cy="4.337" r="4.337" transform="translate(17.347)"/></g><g transform="translate(1839.971 1321.621)"><circle class="b" cx="4.337" cy="4.337" r="4.337"/><circle class="b" cx="4.337" cy="4.337" r="4.337" transform="translate(17.347)"/></g><g transform="translate(1839.971 1339.931)"><circle class="b" cx="4.337" cy="4.337" r="4.337"/><circle class="b" cx="4.337" cy="4.337" r="4.337" transform="translate(17.347)"/></g><g transform="translate(1839.971 1358.242)"><circle class="b" cx="4.337" cy="4.337" r="4.337" transform="translate(0 0)"/><circle class="b" cx="4.337" cy="4.337" r="4.337" transform="translate(17.347 0)"/></g><g transform="translate(1839.971 1376.552)"><circle class="b" cx="4.337" cy="4.337" r="4.337" transform="translate(0 0)"/><circle class="b" cx="4.337" cy="4.337" r="4.337" transform="translate(17.347 0)"/></g><g transform="translate(1839.971 1394.862)"><circle class="b" cx="4.337" cy="4.337" r="4.337" transform="translate(0 0)"/><circle class="b" cx="4.337" cy="4.337" r="4.337" transform="translate(17.347 0)"/></g><g transform="translate(1839.971 1413.173)"><circle class="b" cx="4.337" cy="4.337" r="4.337" transform="translate(0 0)"/><circle class="b" cx="4.337" cy="4.337" r="4.337" transform="translate(17.347 0)"/></g></g></svg>