<svg xmlns="http://www.w3.org/2000/svg" width="128.879" height="128.879" viewBox="0 0 128.879 128.879"><defs><style>.a{fill:#f49512;}</style></defs><g transform="translate(-0.001 0)"><path d="M308.517,260a2.517,2.517,0,1,0,2.517,2.517A2.518,2.518,0,0,0,308.517,260Zm0,0" transform="translate(-228.974 -194.554)"/><path d="M25.718,93.081.546,124.8a2.517,2.517,0,0,0,1.971,4.082H126.362a2.517,2.517,0,0,0,1.971-4.082L103.162,93.081a2.516,2.516,0,0,0-1.971-.953H79.141L97.966,62.6a40.275,40.275,0,1,0-67.051,0L49.739,92.128H27.689a2.518,2.518,0,0,0-1.971.953Zm-9.4,19.94H31.54l-8.59,10.824H7.729ZM52.95,97.162l6.9,10.824H41.963l8.591-10.824Zm22.982,0h2.4l8.59,10.824H69.031Zm14.982,15.858,8.59,10.824H29.377l8.591-10.824Zm15.017,10.824L97.34,113.021h15.221l8.59,10.824Zm2.634-15.858H93.345L84.754,97.162H99.975ZM35.117,59.83a35.24,35.24,0,1,1,58.647,0c-.011.015-.02.029-.029.044-1.653,2.593-28.021,43.951-29.295,45.947L35.146,59.874c-.009-.015-.019-.029-.029-.044Zm9.009,37.333-8.59,10.824H20.315l8.591-10.824Zm0,0"/><path class="a" d="M181.172,110.343A25.172,25.172,0,1,0,156,85.172,25.174,25.174,0,0,0,181.172,110.343Zm0-45.309a20.137,20.137,0,1,1-20.137,20.137A20.16,20.16,0,0,1,181.172,65.034Zm0,0" transform="translate(-116.732 -44.897)"/><path d="M259.117,293.049a2.517,2.517,0,0,0-3.455.856l-9.3,15.435a2.517,2.517,0,1,0,4.312,2.6l9.3-15.435A2.517,2.517,0,0,0,259.117,293.049Zm0,0" transform="translate(-184.074 -219.013)"/></g></svg>