<svg xmlns="http://www.w3.org/2000/svg" xmlns:xlink="http://www.w3.org/1999/xlink" width="73" height="73" viewBox="0 0 73 73">
  <defs>
    <linearGradient id="linear-gradient" x1="0.5" y1="1" x2="0.5" gradientUnits="objectBoundingBox">
      <stop offset="0" stop-color="#dcb0ae"/>
      <stop offset="1" stop-color="#fae5e4"/>
    </linearGradient>
    <filter id="Ellipse_2449" x="0" y="0" width="73" height="73" filterUnits="userSpaceOnUse">
      <feOffset input="SourceAlpha"/>
      <feGaussianBlur stdDeviation="1.5" result="blur"/>
      <feFlood flood-opacity="0.102"/>
      <feComposite operator="in" in2="blur"/>
      <feComposite in="SourceGraphic"/>
    </filter>
  </defs>
  <g id="Group_10433" data-name="Group 10433" transform="translate(-1302.5 -2374.5)">
    <g transform="matrix(1, 0, 0, 1, 1302.5, 2374.5)" filter="url(#Ellipse_2449)">
      <circle id="Ellipse_2449-2" data-name="Ellipse 2449" cx="32" cy="32" r="32" transform="translate(4.5 4.5)" fill="url(#linear-gradient)"/>
    </g>
    <g id="home-5" transform="translate(1579.053 2651)">
      <g id="home-5-2" data-name="home-5" transform="translate(-256.053 -255.999)">
        <g id="Group_10429" data-name="Group 10429">
          <g id="Group_10428" data-name="Group 10428">
            <path id="Path_17255" data-name="Path 17255" d="M49.085,34.39a.786.786,0,0,0-1.03.008l-2.147,1.921v-.252a.533.533,0,0,0-1.067,0v1.207l-.889.8a.533.533,0,0,0,.711.795l3.911-3.5,3.911,3.5a.533.533,0,1,0,.711-.795Z" transform="translate(-41.105 -32.068)" fill="#444"/>
            <path id="Path_17256" data-name="Path 17256" d="M67.72,119.52a.533.533,0,0,0-.533.533v3.733H61.854v-3.733a.533.533,0,0,0-1.067,0v4.072a.738.738,0,0,0,.747.728h5.973a.739.739,0,0,0,.747-.73v-4.07A.533.533,0,0,0,67.72,119.52Z" transform="translate(-57.05 -112.053)" fill="#444"/>
            <path id="Path_17257" data-name="Path 17257" d="M64.52,221.92a3.733,3.733,0,1,0,3.733,3.733A3.733,3.733,0,0,0,64.52,221.92Zm-2.667,3.733a2.671,2.671,0,0,1,2.133-2.613v2.311l-1.973,1.183A2.629,2.629,0,0,1,61.854,225.653Zm.71,1.8,1.874-1.125,1.551,1.551A2.641,2.641,0,0,1,62.563,227.449Zm4.179-.328-1.689-1.689V223.04a2.662,2.662,0,0,1,1.689,4.081Z" transform="translate(-57.05 -208.053)" fill="#444"/>
            <path id="Path_17258" data-name="Path 17258" d="M253.854,41.654V39.828a.842.842,0,0,0-.841-.841h-1.518a.842.842,0,0,0-.841.841v1.826h-1.067V38.31a.924.924,0,0,0-.923-.923H247.31a.924.924,0,0,0-.923.923v3.344H245.32V35.787a1.067,1.067,0,0,0-1.067-1.067h-1.067a1.067,1.067,0,0,0-1.067,1.067v5.867h-.533a.533.533,0,0,1-.533-.533v-6.4a.533.533,0,1,0-1.067,0v6.4a1.6,1.6,0,0,0,1.6,1.6h12.267a.533.533,0,0,0,0-1.067Zm-9.6,0h-1.067V35.787h1.067Zm4.267,0h-1.067v-3.2h1.067Zm4.267,0H251.72v-1.6h1.067v1.6Z" transform="translate(-225.057 -32.054)" fill="#444"/>
            <path id="Path_17259" data-name="Path 17259" d="M253.854,212.321H241.587a.533.533,0,0,1-.533-.533v-.846l1.756-1.756a.544.544,0,0,1,.754,0l.625.625a1.6,1.6,0,0,0,2.262,0l2.225-2.225a.545.545,0,0,1,.754,0l.625.626a1.6,1.6,0,0,0,2.262,0l1.913-1.913a.533.533,0,0,0-.754-.754l-1.913,1.912a.533.533,0,0,1-.754,0l-.625-.625a1.638,1.638,0,0,0-2.262,0l-2.225,2.225a.533.533,0,0,1-.754,0l-.624-.625a1.639,1.639,0,0,0-2.263,0l-1,1v-4.046a.533.533,0,0,0-1.067,0v6.4a1.6,1.6,0,0,0,1.6,1.6h12.267a.533.533,0,0,0,0-1.067Z" transform="translate(-225.057 -192.054)" fill="#444"/>
            <path id="Path_17260" data-name="Path 17260" d="M33,24.828V3.01A2.826,2.826,0,0,0,30.331.053H3.67A2.826,2.826,0,0,0,1,3.01V24.828A2.826,2.826,0,0,0,3.67,27.786H12.2v1.067H10.068a2.133,2.133,0,0,0-2.133,2.133v.533a.533.533,0,0,0,.533.533H25.532a.533.533,0,0,0,.533-.533v-.533a2.133,2.133,0,0,0-2.133-2.133H21.8V27.786h8.532A2.826,2.826,0,0,0,33,24.828ZM23.932,29.92A1.067,1.067,0,0,1,25,30.986H9a1.067,1.067,0,0,1,1.066-1.067ZM13.268,28.853V27.786h7.465v1.067ZM30.331,26.72H3.67a1.766,1.766,0,0,1-1.6-1.891V23.52H31.93v1.309A1.766,1.766,0,0,1,30.331,26.72ZM31.93,3.01V22.453H2.07V3.01A1.766,1.766,0,0,1,3.67,1.12H30.331A1.766,1.766,0,0,1,31.93,3.01Z" transform="translate(-1 -0.053)" fill="#444"/>
          </g>
        </g>
      </g>
    </g>
  </g>
</svg>
