<svg xmlns="http://www.w3.org/2000/svg" xmlns:xlink="http://www.w3.org/1999/xlink" width="73" height="73" viewBox="0 0 73 73">
  <defs>
    <linearGradient id="linear-gradient" x1="0.5" y1="1" x2="0.5" gradientUnits="objectBoundingBox">
      <stop offset="0" stop-color="#e2f0cb"/>
      <stop offset="1" stop-color="#edf2e6"/>
    </linearGradient>
    <filter id="Ellipse_2440" x="0" y="0" width="73" height="73" filterUnits="userSpaceOnUse">
      <feOffset input="SourceAlpha"/>
      <feGaussianBlur stdDeviation="1.5" result="blur"/>
      <feFlood flood-opacity="0.102"/>
      <feComposite operator="in" in2="blur"/>
      <feComposite in="SourceGraphic"/>
    </filter>
  </defs>
  <g id="Group_10418" data-name="Group 10418" transform="translate(-931.5 -1265.5)">
    <g transform="matrix(1, 0, 0, 1, 931.5, 1265.5)" filter="url(#Ellipse_2440)">
      <circle id="Ellipse_2440-2" data-name="Ellipse 2440" cx="32" cy="32" r="32" transform="translate(4.5 4.5)" fill="url(#linear-gradient)"/>
    </g>
    <g id="mobile-phone" transform="translate(1128.666 1542)">
      <g id="mobile-phone-2" data-name="mobile-phone" transform="translate(-170.667 -256)">
        <g id="Group_10411" data-name="Group 10411">
          <g id="Group_10410" data-name="Group 10410">
            <path id="Path_17197" data-name="Path 17197" d="M102.833,0h-15a2.59,2.59,0,0,0-2.5,2.667V29.333A2.59,2.59,0,0,0,87.833,32h15a2.59,2.59,0,0,0,2.5-2.667V2.667A2.59,2.59,0,0,0,102.833,0Zm1.25,29.333a1.3,1.3,0,0,1-1.25,1.333h-15a1.3,1.3,0,0,1-1.25-1.333V26.667h17.5v2.667Zm0-4h-17.5V2.667a1.3,1.3,0,0,1,1.25-1.333h15a1.3,1.3,0,0,1,1.25,1.333Z" transform="translate(-85.333)" fill="#444"/>
            <path id="Path_17198" data-name="Path 17198" d="M235.291,44h1.25a.668.668,0,0,0,0-1.333h-1.25a.668.668,0,0,0,0,1.333Z" transform="translate(-225.916 -39.999)" fill="#444"/>
            <path id="Path_17199" data-name="Path 17199" d="M213.958,449.333h3.75a.668.668,0,0,0,0-1.333h-3.75a.668.668,0,0,0,0,1.333Z" transform="translate(-205.833 -420)" fill="#444"/>
            <ellipse id="Ellipse_2442" data-name="Ellipse 2442" cx="0.625" cy="0.667" rx="0.625" ry="0.667" transform="translate(16.25 2.667)" fill="#444"/>
          </g>
        </g>
      </g>
    </g>
  </g>
</svg>
