<svg id="php-seeklogo.com" xmlns="http://www.w3.org/2000/svg" xmlns:xlink="http://www.w3.org/1999/xlink" width="142.017" height="74.67" viewBox="0 0 142.017 74.67">
  <defs>
    <radialGradient id="radial-gradient" cx="0.3" cy="0.176" r="1.249" gradientUnits="objectBoundingBox">
      <stop offset="0" stop-color="#fff"/>
      <stop offset="0.5" stop-color="#4c6b97"/>
      <stop offset="1" stop-color="#231f20"/>
    </radialGradient>
  </defs>
  <ellipse id="Ellipse_2458" data-name="Ellipse 2458" cx="71.009" cy="37.335" rx="71.009" ry="37.335" transform="translate(0 0)" fill="url(#radial-gradient)"/>
  <ellipse id="Ellipse_2459" data-name="Ellipse 2459" cx="68.235" cy="34.561" rx="68.235" ry="34.561" transform="translate(2.774 2.774)" fill="#6181b6"/>
  <g id="Group_10590" data-name="Group 10590" transform="translate(20.506 9.764)">
    <path id="Path_17406" data-name="Path 17406" d="M101.28,56.377l3.384-17.419c.777-3.939.111-6.879-1.886-8.71-1.942-1.775-5.27-2.663-10.152-2.663h-5.88l1.664-8.654a1.16,1.16,0,0,0-.222-.943,1,1,0,0,0-.832-.388h-8.1a1.134,1.134,0,0,0-1.11.888L74.541,36.961A9.87,9.87,0,0,0,72.1,31.635C69.714,28.917,66,27.53,60.949,27.53H45.361a1.134,1.134,0,0,0-1.11.888l-7.267,37.5a1.16,1.16,0,0,0,.222.943,1,1,0,0,0,.832.388h8.155a1.134,1.134,0,0,0,1.11-.888l1.775-9.042h6.047a26.578,26.578,0,0,0,7.933-1,15.73,15.73,0,0,0,5.825-3.495,17.915,17.915,0,0,0,3.439-4.272l-1.442,7.489a1.16,1.16,0,0,0,.222.943,1,1,0,0,0,.832.388h8.1a1.134,1.134,0,0,0,1.11-.888l3.994-20.526h5.548c2.385,0,3.051.444,3.273.666.166.166.5.832.111,2.885L90.851,56.1a1.16,1.16,0,0,0,.222.943,1,1,0,0,0,.832.388h8.321A1.548,1.548,0,0,0,101.28,56.377Zm-37.5-14.424c-.5,2.607-1.442,4.494-2.829,5.548s-3.661,1.609-6.657,1.609H50.686l2.607-13.425h4.66c3.439,0,4.826.721,5.381,1.331C64.056,37.9,64.222,39.624,63.779,41.954Z" transform="translate(-36.964 -17.6)" fill="#fff"/>
    <path id="Path_17407" data-name="Path 17407" d="M187.011,39.605c-2.385-2.718-6.1-4.105-11.151-4.105h-15.7a1.134,1.134,0,0,0-1.11.888l-7.267,37.446a1.16,1.16,0,0,0,.222.943,1,1,0,0,0,.832.388h8.155a1.134,1.134,0,0,0,1.11-.888l1.775-9.043h6.047a26.578,26.578,0,0,0,7.933-1,15.73,15.73,0,0,0,5.825-3.495,17.863,17.863,0,0,0,3.55-4.438,18.472,18.472,0,0,0,1.942-5.326C190.117,46.151,189.4,42.379,187.011,39.605Zm-8.488,10.318c-.5,2.607-1.442,4.494-2.829,5.548s-3.661,1.609-6.657,1.609h-3.606l2.607-13.425h4.66c3.439,0,4.826.721,5.381,1.331C178.856,45.874,179.022,47.594,178.523,49.924Z" transform="translate(-88.078 -25.57)" fill="#fff"/>
  </g>
  <g id="Group_10591" data-name="Group 10591" transform="translate(21.635 10.873)">
    <path id="Path_17408" data-name="Path 17408" d="M58.86,43.436c3.107,0,5.159.555,6.213,1.72s1.276,3.107.721,5.88c-.555,2.885-1.664,4.993-3.273,6.213S58.472,59.08,55.2,59.08H50.262l3.051-15.644ZM39,74.946h8.155l1.942-9.93h6.99a24.259,24.259,0,0,0,7.6-1,14.57,14.57,0,0,0,5.437-3.273,16.647,16.647,0,0,0,3.329-4.161,16.186,16.186,0,0,0,1.775-4.993c.888-4.438.222-7.878-1.942-10.374S66.682,37.5,61.967,37.5h-15.7Z" transform="translate(-39 -27.57)" fill="#000004"/>
    <path id="Path_17409" data-name="Path 17409" d="M107.467,19.6h8.1l-1.942,9.93h7.212c4.549,0,7.656.777,9.375,2.385s2.219,4.161,1.553,7.711l-3.384,17.419h-8.21l3.218-16.587c.388-1.886.222-3.162-.388-3.828s-2-1.054-4.05-1.054H112.46L108.3,57.046h-8.1Z" transform="translate(-66.249 -19.6)" fill="#000004"/>
    <path id="Path_17410" data-name="Path 17410" d="M173.56,43.436c3.107,0,5.159.555,6.213,1.72s1.276,3.107.721,5.88c-.555,2.885-1.664,4.993-3.273,6.213s-4.05,1.831-7.323,1.831h-4.937l3.051-15.644ZM153.7,74.946h8.155l1.942-9.93h6.99a24.259,24.259,0,0,0,7.6-1,14.57,14.57,0,0,0,5.437-3.273,16.647,16.647,0,0,0,3.329-4.161,16.186,16.186,0,0,0,1.775-4.993c.888-4.438.222-7.878-1.942-10.374s-5.6-3.717-10.318-3.717h-15.7Z" transform="translate(-90.07 -27.57)" fill="#000004"/>
  </g>
</svg>
