<svg xmlns="http://www.w3.org/2000/svg" width="121.121" height="121.121" viewBox="0 0 121.121 121.121"><defs><style>.a{fill:#f49512;}</style></defs><g transform="translate(-1 -1)"><path d="M119.906,83.988l-8.33-8.33A37.064,37.064,0,0,0,56.444,28.35h-21.7a15.622,15.622,0,1,0-20.077.455A17.6,17.6,0,0,0,1,45.932V57.653a13.694,13.694,0,0,0,9.768,13.1v43.555a7.782,7.782,0,0,0,13.675,5.114,7.782,7.782,0,0,0,13.675-5.114v-3.1L54.555,94.771,52.6,92.818l5-5a36.9,36.9,0,0,0,13.73,6.107v10.184l4.72,1.178-2.5,4.173,10.446,10.446,4.169-2.5,1.178,4.718h14.773l1.178-4.72,4.169,2.5L119.9,109.46l-2.5-4.173,4.72-1.176V89.338L117.4,88.16Zm-7.552-26.334A33.211,33.211,0,1,1,79.143,24.443,33.248,33.248,0,0,1,112.353,57.653Zm-5.861,39.071A9.769,9.769,0,1,1,87.453,93.8a36.9,36.9,0,0,0,13.222-5.97,9.729,9.729,0,0,1,5.818,8.9ZM42.025,82.241l-3.907,3.907V71.328h.977a6.818,6.818,0,0,0,4.837-2.01A37.007,37.007,0,0,0,48.976,79.2l-5,5Zm0-24.588c0,.238.031.469.035.705a6.759,6.759,0,0,0-2.966-.705h-.977v-12.7a2.934,2.934,0,0,1,2.93-2.93h4.474A36.858,36.858,0,0,0,42.025,57.653Zm-15.709-10.5L24.443,49.03l-1.873-1.873,1.448-14.9h.85ZM12.721,16.629A11.721,11.721,0,1,1,24.443,28.35,11.733,11.733,0,0,1,12.721,16.629Zm5.861,15.629h1.51L18.5,48.614l5.941,5.941,5.941-5.941-1.59-16.357H52.148a37.382,37.382,0,0,0-4.507,5.861H41.048a6.845,6.845,0,0,0-6.837,6.837v12.7H16.629A1.956,1.956,0,0,1,14.675,55.7V42.025H10.768V53.746H4.907V45.932A13.691,13.691,0,0,1,18.582,32.257ZM4.907,57.653h6.22a5.853,5.853,0,0,0,5.5,3.907H39.095a2.93,2.93,0,0,1,0,5.861H14.675A9.779,9.779,0,0,1,4.907,57.653Zm25.4,60.561a3.911,3.911,0,0,1-3.907-3.907V79.143H22.489v35.164a3.907,3.907,0,1,1-7.814,0V71.328H34.211v42.978A3.911,3.911,0,0,1,30.3,118.214Zm7.814-12.53V91.673l3.907-3.907,7.005,7.005ZM49.839,90.055l-3.1-3.1,4.692-4.692a37.093,37.093,0,0,0,3.1,3.1Zm68.375,2.335v8.67l-3.808.949-1.043.4-.91,2.225,2.532,4.218-6.13,6.13-4.216-2.53-2.383.969-1.2,4.79H92.39l-.951-3.808-.4-1.045-2.231-.906-4.216,2.53-6.13-6.13L81,104.637l-.977-2.383-4.784-1.194v-6.5a35.964,35.964,0,0,0,8.006-.029,13.672,13.672,0,1,0,20.72-9.36,37.464,37.464,0,0,0,5.468-6.136l5.556,5.556-2.532,4.218.983,2.383Z" transform="translate(0 0)"/><path class="a" d="M55.3,73.607A29.3,29.3,0,1,0,26,44.3,29.337,29.337,0,0,0,55.3,73.607ZM45.536,54.071h3.907V68.991a24.95,24.95,0,0,1-3.907-1.25Zm-3.907,11.6a25.5,25.5,0,0,1-3.907-3.083V42.35h3.907ZM53.35,69.6V26.721h3.907V69.6c-.647.051-1.293.1-1.954.1S54,69.651,53.35,69.6Zm7.814-23.343h3.907V67.74a25.367,25.367,0,0,1-3.907,1.25Zm11.721,16.33a25.5,25.5,0,0,1-3.907,3.083V38.443h3.907ZM55.3,18.907A25.348,25.348,0,0,1,76.793,57.775V34.536H65.071V42.35H61.164V22.814H49.443v27.35H45.536V38.443H33.814V57.775A25.348,25.348,0,0,1,55.3,18.907Z" transform="translate(23.839 13.35)"/></g></svg>