<svg xmlns="http://www.w3.org/2000/svg" width="152.228" height="165.7" viewBox="0 0 152.228 165.7"><defs><style>.a{fill:#efefef;}.b{fill:#a4afc1;}.c{fill:#f3f3f1;}.d{fill:#febc61;}.e{fill:#d5dbe1;}</style></defs><g transform="translate(-2 -0.584)"><path class="a" d="M122.753,17.629C89.862,17.629,67.274.584,51.425.584S2.29,9.7,2.29,82.64,47.07,166.284,64.5,166.284C146.134,166.289,181,17.629,122.753,17.629Z" transform="translate(1.12 0)"/><g transform="translate(11.261 5.801)"><path class="b" d="M0,0H9.724V4.862H0Z" transform="translate(0 26.64) rotate(-45)"/><path class="b" d="M0,0H9.724V4.862H0Z" transform="translate(19.773 6.875) rotate(-45)"/><path class="b" d="M0,0H4.862V9.724H0Z" transform="translate(0.007 4.297) rotate(-45)"/></g><path class="c" d="M15.612,6.75h80.22a4.864,4.864,0,0,1,4.862,4.862V67.523a4.864,4.864,0,0,1-4.862,4.862H15.612a4.864,4.864,0,0,1-4.862-4.862V11.612A4.864,4.864,0,0,1,15.612,6.75Z" transform="translate(30.32 22.758)"/><path class="d" d="M19.689,17.689a10.89,10.89,0,0,1,5.47-9.422,10.92,10.92,0,1,0-5.47,20.361,10.838,10.838,0,0,0,5.47-1.517A10.89,10.89,0,0,1,19.689,17.689Z" transform="translate(25.277 23.071)"/><path class="d" d="M27.413,84.247V58.08a4.854,4.854,0,0,0-2.689-4.346L20.378,51.56a4.867,4.867,0,0,1-2.689-4.351V28.335A14.585,14.585,0,0,1,32.275,13.75H21.336A14.585,14.585,0,0,0,6.75,28.335V47.209a4.854,4.854,0,0,0,2.689,4.346l4.346,2.173a4.86,4.86,0,0,1,2.689,4.346V84.242A4.864,4.864,0,0,0,21.336,89.1H32.275a4.856,4.856,0,0,1-4.862-4.857Z" transform="translate(18.402 48.361)"/><path class="e" d="M21.689,10.03V28.6a12.945,12.945,0,0,0-3.646-.486H10.75v-12.2a10.162,10.162,0,0,0,1.215.049,10.926,10.926,0,0,0,9.724-5.931Z" transform="translate(32.806 35.368)"/><path class="e" d="M11.45,6.993a4.827,4.827,0,0,1,1.459-.243H23.848a4.876,4.876,0,0,0-4.862,4.862v1.07A10.765,10.765,0,0,0,11.45,6.993Z" transform="translate(35.419 23.143)"/><path d="M22.586,35.171A14.585,14.585,0,1,1,37.171,20.585,14.6,14.6,0,0,1,22.586,35.171Zm0-21.878a7.293,7.293,0,1,0,7.293,7.293A7.3,7.3,0,0,0,22.586,13.293Z" transform="translate(22.398 20.231)"/><path d="M36.386,95.651H24.232a8.518,8.518,0,0,1-8.508-8.508V60.977a1.217,1.217,0,0,0-.671-1.089L10.7,57.714A8.463,8.463,0,0,1,6,50.106V31.232A18.251,18.251,0,0,1,24.232,13H36.386A18.251,18.251,0,0,1,54.618,31.232V50.106a8.463,8.463,0,0,1-4.7,7.609l-4.351,2.173a1.217,1.217,0,0,0-.671,1.089V87.143A8.518,8.518,0,0,1,36.386,95.651ZM24.232,20.293A10.949,10.949,0,0,0,13.293,31.232V50.106a1.217,1.217,0,0,0,.671,1.089l4.351,2.173a8.463,8.463,0,0,1,4.7,7.609V87.143a1.216,1.216,0,0,0,1.215,1.215H36.386A1.216,1.216,0,0,0,37.6,87.143V60.977a8.463,8.463,0,0,1,4.7-7.609l4.351-2.173a1.206,1.206,0,0,0,.671-1.089V31.232A10.949,10.949,0,0,0,36.386,20.293Z" transform="translate(15.447 45.409)"/><path d="M38.648,38.437a3.618,3.618,0,0,1-2.577-1.07L23.412,25c.5,1,5.659-4.943,5.659-4.943l9.651,9.651L59.467,10.19l5,5.309L41.147,37.445a3.63,3.63,0,0,1-2.5.992Z" transform="translate(58.189 35.89)"/><path d="M75.557,78.927H25.724V71.635H75.557a1.216,1.216,0,0,0,1.215-1.215V14.508a1.216,1.216,0,0,0-1.215-1.215H16V6H75.557a8.518,8.518,0,0,1,8.508,8.508V70.419A8.518,8.518,0,0,1,75.557,78.927Z" transform="translate(50.715 19.92)"/><path d="M51.9,47.674l-15.271-18.8-15.271,18.8-5.664-4.6,18.1-22.282a3.768,3.768,0,0,1,5.659,0l18.1,22.282Z" transform="translate(50.922 70.722)"/><path d="M2,28.5H154.228v7.293H2Z" transform="translate(0 104.101)"/></g></svg>