<svg xmlns="http://www.w3.org/2000/svg" width="183.699" height="165.7" viewBox="0 0 183.699 165.7"><defs><style>.a{fill:#efefef;}.b{fill:#a4afc1;}.c{fill:#f3f3f1;}.d{fill:#d5dbe1;}.e{fill:#febc61;}</style></defs><g transform="translate(-0.583 -2.29)"><path class="a" d="M165.387,135.889c0-36.478,18.9-61.528,18.9-79.106S174.178,2.29,93.316,2.29.583,51.953.583,71.286C.583,161.82,165.387,200.492,165.387,135.889Z" transform="translate(0 0)"/><path class="b" d="M0,0H10.45V5.225H0Z" transform="translate(50.12 18.126) rotate(-45)"/><path class="b" d="M0,0H10.45V5.225H0Z" transform="translate(28.664 39.664) rotate(-45)"/><path class="b" d="M0,0H5.225V10.45H0Z" transform="translate(29.6 14.429) rotate(-45)"/><g transform="translate(33.655 81.988)"><circle class="c" cx="6.531" cy="6.531" r="6.531" transform="translate(94.049 7.837)"/><circle class="c" cx="6.531" cy="6.531" r="6.531" transform="translate(10.45 7.837)"/><circle class="c" cx="11.756" cy="11.756" r="11.756" transform="translate(47.024)"/><path class="c" d="M62.887,46.956V35.2a10.447,10.447,0,0,0-10.45-10.45H23.7A10.447,10.447,0,0,0,13.25,35.2V46.956Z" transform="translate(20.712 14.437)"/><path class="c" d="M56.712,40.731V34.2a10.447,10.447,0,0,0-10.45-10.45H33.2A10.447,10.447,0,0,0,22.75,34.2v6.531Z" transform="translate(60.849 10.212)"/><path class="c" d="M40.712,40.731V34.2a10.447,10.447,0,0,0-10.45-10.45H17.2A10.447,10.447,0,0,0,6.75,34.2v6.531Z" transform="translate(-6.75 10.212)"/></g><path class="d" d="M36.506,25.281a6.39,6.39,0,0,1,.653-2.748,6.531,6.531,0,1,0,0,5.5A6.39,6.39,0,0,1,36.506,25.281Z" transform="translate(103.369 70.415)"/><path class="e" d="M20.506,25.281a6.39,6.39,0,0,1,.653-2.748,6.531,6.531,0,1,0,0,5.5A6.39,6.39,0,0,1,20.506,25.281Z" transform="translate(34.933 70.415)"/><path class="d" d="M27.506,29.006A11.7,11.7,0,0,1,33.384,18.88a11.756,11.756,0,1,0,0,20.252A11.7,11.7,0,0,1,27.506,29.006Z" transform="translate(64.899 33.73)"/><path class="d" d="M35.456,24.75H23.7A10.447,10.447,0,0,0,13.25,35.2V46.956H25.006V35.2A10.447,10.447,0,0,1,35.456,24.75Z" transform="translate(54.221 65.835)"/><path class="d" d="M44.956,23.75H33.2A10.447,10.447,0,0,0,22.75,34.2v6.531H34.506V34.2A10.447,10.447,0,0,1,44.956,23.75Z" transform="translate(94.886 61.522)"/><path class="e" d="M28.956,23.75H17.2A10.447,10.447,0,0,0,6.75,34.2v6.531H18.506V34.2A10.447,10.447,0,0,1,28.956,23.75Z" transform="translate(26.398 61.522)"/><path d="M34.45,38.9A10.45,10.45,0,1,1,44.9,28.45,10.46,10.46,0,0,1,34.45,38.9Zm0-13.062a2.612,2.612,0,1,0,2.612,2.612A2.613,2.613,0,0,0,34.45,25.837Z" transform="translate(100.226 36.931)"/><path d="M55.35,43.9H47.512V37.369a6.54,6.54,0,0,0-6.531-6.531H24V23H40.981A14.381,14.381,0,0,1,55.35,37.369Z" transform="translate(100.315 58.335)"/><path d="M18.45,38.9A10.45,10.45,0,1,1,28.9,28.45,10.46,10.46,0,0,1,18.45,38.9Zm0-13.062a2.612,2.612,0,1,0,2.612,2.612A2.613,2.613,0,0,0,18.45,25.837Z" transform="translate(31.745 36.931)"/><path d="M13.837,43.9H6V37.369A14.381,14.381,0,0,1,20.369,23H37.35v7.837H20.369a6.54,6.54,0,0,0-6.531,6.531Z" transform="translate(23.206 58.335)"/><path d="M30.675,47.85A15.675,15.675,0,1,1,46.35,32.175,15.694,15.694,0,0,1,30.675,47.85Zm0-23.512a7.837,7.837,0,1,0,7.837,7.837A7.847,7.847,0,0,0,30.675,24.337Z" transform="translate(61.761 30.547)"/><path d="M69.974,50.125H62.137V38.369a6.54,6.54,0,0,0-6.531-6.531H26.869a6.54,6.54,0,0,0-6.531,6.531V50.125H12.5V38.369A14.381,14.381,0,0,1,26.869,24H55.606A14.381,14.381,0,0,1,69.974,38.369Z" transform="translate(51.198 62.65)"/><path d="M2,27.5H170.9v7.837H2Z" transform="translate(5.987 77.508)"/></g></svg>